<svg width="99" height="15" viewBox="0 0 99 15" fill="none" xmlns="http://www.w3.org/2000/svg">
<path d="M15.2963 6.77219C15.2963 6.77219 15.5308 7.92121 15.5837 8.16191H14.5525L15.0467 6.81833C15.0405 6.82778 15.1484 6.53705 15.2101 6.35805L15.2963 6.77219ZM18.5666 2.09938V12.9704C18.5662 13.3634 18.4098 13.7403 18.1319 14.0182C17.8539 14.2961 17.4771 14.4525 17.084 14.4529H2.25992C1.86685 14.4525 1.49001 14.2961 1.21207 14.0182C0.934127 13.7403 0.777785 13.3634 0.777344 12.9704V2.09938C0.777785 1.70632 0.934127 1.32948 1.21207 1.05154C1.49001 0.773602 1.86685 0.617263 2.25992 0.616821H17.084C17.4771 0.617263 17.8539 0.773602 18.1319 1.05154C18.4098 1.32948 18.5662 1.70632 18.5666 2.09938ZM5.48746 9.85737L7.43921 5.06449H6.12674L4.91322 8.33813L4.78036 7.67439L4.34787 5.46918C4.27671 5.16344 4.05769 5.07672 3.78586 5.06449H1.78796L1.76628 5.16011C2.22379 5.27248 2.66266 5.45035 3.06931 5.6882L4.17499 9.85737H5.48746ZM8.40314 9.86349L9.18139 5.06449H7.94008L7.16516 9.86349H8.40314ZM12.7236 8.29477C12.7297 7.74833 12.3961 7.33141 11.6829 6.98843C11.2477 6.76885 10.9819 6.62098 10.9819 6.39529C10.9881 6.19128 11.2076 5.98116 11.6952 5.98116C12.0127 5.97172 12.3284 6.03405 12.6185 6.16349L12.7297 6.21574L12.8998 5.1779C12.5447 5.04261 12.1679 4.97347 11.788 4.97388C10.5617 4.97388 9.70004 5.62872 9.69393 6.56095C9.68448 7.2497 10.3115 7.6327 10.7813 7.86395C11.2599 8.09854 11.4239 8.25308 11.4239 8.45987C11.4178 8.78117 11.0348 8.92904 10.6795 8.92904C10.1853 8.92904 9.91963 8.85177 9.51493 8.67277L9.3515 8.5955L9.17861 9.67337C9.46879 9.80623 10.0063 9.92352 10.5622 9.92964C11.8653 9.93242 12.7147 9.28703 12.7241 8.2931L12.7236 8.29477ZM17.084 9.86349L16.0834 5.06449H15.1228C14.8265 5.06449 14.6008 5.15121 14.4741 5.46307L12.6302 9.86404H13.9332C13.9332 9.86404 14.1461 9.27091 14.1928 9.14472H15.7866C15.8238 9.31483 15.935 9.86404 15.935 9.86404L17.084 9.86349Z" fill="#51DB49"/>
<path d="M42.3754 12.2695C42.3754 12.4795 42.2333 12.6309 42.0295 12.6309C41.8195 12.6309 41.6836 12.4703 41.6836 12.2695C41.6836 12.0688 41.8195 11.9082 42.0295 11.9082C42.2333 11.9082 42.3754 12.0688 42.3754 12.2695ZM32.7766 11.9082C32.5573 11.9082 32.4307 12.0688 32.4307 12.2695C32.4307 12.4703 32.5573 12.6309 32.7766 12.6309C32.9773 12.6309 33.1132 12.4795 33.1132 12.2695C33.1101 12.0688 32.9773 11.9082 32.7766 11.9082ZM36.4055 11.8989C36.2387 11.8989 36.1368 12.007 36.1121 12.1676H36.702C36.6742 11.9916 36.5661 11.8989 36.4055 11.8989ZM39.7348 11.9082C39.5248 11.9082 39.3981 12.0688 39.3981 12.2695C39.3981 12.4703 39.5248 12.6309 39.7348 12.6309C39.9448 12.6309 40.0807 12.4795 40.0807 12.2695C40.0807 12.0688 39.9448 11.9082 39.7348 11.9082ZM43.0054 12.7143C43.0054 12.7235 43.0147 12.7297 43.0147 12.7482C43.0147 12.7575 43.0054 12.7637 43.0054 12.7822C42.9961 12.7915 42.9961 12.7976 42.99 12.8069C42.9807 12.8162 42.9745 12.8224 42.956 12.8224C42.9467 12.8316 42.9405 12.8316 42.922 12.8316C42.9128 12.8316 42.9066 12.8316 42.888 12.8224C42.8788 12.8224 42.8726 12.8131 42.8633 12.8069C42.8541 12.7976 42.8479 12.7915 42.8479 12.7822C42.8386 12.7668 42.8386 12.7575 42.8386 12.7482C42.8386 12.7328 42.8386 12.7235 42.8479 12.7143C42.8479 12.6988 42.8572 12.6896 42.8633 12.6803C42.8726 12.671 42.8788 12.671 42.888 12.6648C42.9035 12.6556 42.9128 12.6556 42.922 12.6556C42.9375 12.6556 42.9467 12.6556 42.956 12.6648C42.9714 12.6741 42.9807 12.6741 42.99 12.6803C42.9992 12.6865 42.9961 12.6988 43.0054 12.7143ZM42.9375 12.7575C42.9529 12.7575 42.9529 12.7482 42.9622 12.7482C42.9714 12.739 42.9714 12.7328 42.9714 12.7235C42.9714 12.7143 42.9714 12.7081 42.9622 12.6988C42.9529 12.6988 42.9467 12.6895 42.9282 12.6895H42.8788V12.7976H42.9035V12.7544H42.9128L42.9467 12.7976H42.9714L42.9375 12.7575ZM45.2507 2.09938V12.9706C45.2507 13.789 44.5867 14.453 43.7682 14.453H28.9439C28.1254 14.453 27.4614 13.789 27.4614 12.9706V2.09938C27.4614 1.28095 28.1254 0.616943 28.9439 0.616943H43.7682C44.5867 0.616943 45.2507 1.28095 45.2507 2.09938ZM29.438 6.41081C29.438 8.77344 31.3559 10.6883 33.7155 10.6883C34.5555 10.6883 35.3801 10.435 36.0781 9.97483C33.8266 8.14341 33.8421 4.68747 36.0781 2.85604C35.3801 2.39278 34.5555 2.14262 33.7155 2.14262C31.3559 2.13953 29.438 4.05744 29.438 6.41081ZM36.3561 9.771C38.5334 8.07237 38.5241 4.76159 36.3561 3.0537C34.188 4.76159 34.1787 8.07546 36.3561 9.771ZM31.9612 12.1275C31.9612 11.8588 31.7852 11.6827 31.5072 11.6735C31.3652 11.6735 31.2138 11.7167 31.1119 11.8742C31.0378 11.7476 30.9112 11.6735 30.7351 11.6735C30.6178 11.6735 30.5004 11.7167 30.4078 11.8402V11.7043H30.1545V12.8378H30.4078C30.4078 12.2541 30.3306 11.9051 30.6857 11.9051C31.0007 11.9051 30.939 12.2201 30.939 12.8378H31.183C31.183 12.2726 31.1058 11.9051 31.4609 11.9051C31.7759 11.9051 31.7142 12.2139 31.7142 12.8378H31.9674V12.1275H31.9612ZM33.3479 11.7043H33.104V11.8402C33.0206 11.7383 32.9032 11.6735 32.7426 11.6735C32.4245 11.6735 32.1805 11.9267 32.1805 12.2695C32.1805 12.6154 32.4245 12.8656 32.7426 12.8656C32.9032 12.8656 33.0206 12.8069 33.104 12.6988V12.8409H33.3479V11.7043ZM34.5987 12.495C34.5987 12.0317 33.8915 12.2417 33.8915 12.0255C33.8915 11.8495 34.259 11.8773 34.4629 11.9916L34.5648 11.7908C34.2745 11.6024 33.6321 11.6055 33.6321 12.0441C33.6321 12.4857 34.3393 12.3004 34.3393 12.5073C34.3393 12.7019 33.9224 12.6865 33.7 12.532L33.5919 12.7266C33.9378 12.9613 34.5987 12.9119 34.5987 12.495ZM35.692 12.7822L35.6241 12.5722C35.5067 12.637 35.2473 12.7081 35.2473 12.4456V11.9329H35.6519V11.7043H35.2473V11.3584H34.9941V11.7043H34.7593V11.9298H34.9941V12.4456C34.9941 12.9891 35.5284 12.8903 35.692 12.7822ZM36.1028 12.3684H36.9521C36.9521 11.868 36.7236 11.6704 36.4147 11.6704C36.0874 11.6704 35.8526 11.9144 35.8526 12.2664C35.8526 12.8996 36.5506 13.0046 36.8965 12.705L36.7792 12.5197C36.5383 12.7173 36.1738 12.6988 36.1028 12.3684ZM37.9281 11.7043C37.786 11.6426 37.5698 11.6488 37.4586 11.8402V11.7043H37.2054V12.8378H37.4586V12.1985C37.4586 11.8402 37.752 11.8866 37.8539 11.9391L37.9281 11.7043ZM38.2554 12.2695C38.2554 11.9174 38.6137 11.8032 38.8947 12.0101L39.0121 11.8094C38.6538 11.5283 38.0022 11.6827 38.0022 12.2726C38.0022 12.8841 38.694 13.0077 39.0121 12.7359L38.8947 12.5351C38.6106 12.7359 38.2554 12.6154 38.2554 12.2695ZM40.3154 11.7043H40.0621V11.8402C39.8058 11.5005 39.1387 11.692 39.1387 12.2695C39.1387 12.8625 39.8305 13.0324 40.0621 12.6988V12.8409H40.3154V11.7043ZM41.3562 11.7043C41.2821 11.6673 41.0165 11.6148 40.8868 11.8402V11.7043H40.6428V12.8378H40.8868V12.1985C40.8868 11.8588 41.1647 11.8804 41.2821 11.9391L41.3562 11.7043ZM42.6008 11.2442H42.3568V11.8402C42.1036 11.5036 41.4334 11.6827 41.4334 12.2695C41.4334 12.8687 42.1283 13.0293 42.3568 12.6988V12.8409H42.6008V11.2442ZM42.8355 8.92477V9.06684H42.8603V8.92477H42.9189V8.90007H42.7769V8.92477H42.8355ZM43.0394 12.7482C43.0394 12.7328 43.0394 12.7143 43.0301 12.6988C43.0208 12.6896 43.0147 12.6741 43.0054 12.6648C42.9961 12.6556 42.9807 12.6494 42.9714 12.6401C42.956 12.6401 42.9375 12.6309 42.922 12.6309C42.9128 12.6309 42.8973 12.6401 42.8788 12.6401C42.8633 12.6494 42.8541 12.6556 42.8448 12.6648C42.8294 12.6741 42.8201 12.6896 42.8201 12.6988C42.8108 12.7143 42.8108 12.7328 42.8108 12.7482C42.8108 12.7575 42.8108 12.7729 42.8201 12.7915C42.8201 12.8007 42.8294 12.8162 42.8448 12.8254C42.8541 12.8347 42.8603 12.8409 42.8788 12.8501C42.8942 12.8594 42.9128 12.8594 42.922 12.8594C42.9375 12.8594 42.956 12.8594 42.9714 12.8501C42.9807 12.8409 42.9961 12.8347 43.0054 12.8254C43.0147 12.8162 43.0208 12.8007 43.0301 12.7915C43.0394 12.7729 43.0394 12.7575 43.0394 12.7482ZM43.1382 8.89698H43.095L43.0456 9.00507L42.9961 8.89698H42.9529V9.06375H42.9776V8.93713L43.027 9.04522H43.061L43.1042 8.93713V9.06375H43.1382V8.89698ZM43.2741 6.41081C43.2741 4.05744 41.3562 2.13953 38.9966 2.13953C38.1566 2.13953 37.332 2.39278 36.634 2.85295C38.8608 4.68438 38.8947 8.14958 36.634 9.97175C37.332 10.435 38.1628 10.6852 38.9966 10.6852C41.3562 10.6883 43.2741 8.77344 43.2741 6.41081Z" fill="#51DB49"/>
<path d="M64.1916 4.81101C64.1916 4.30451 63.7562 4.24274 63.3454 4.24274L62.1378 4.23348V6.37374H62.6443V5.59855H63.2002C63.7685 5.59855 63.6481 5.91666 63.6573 6.37374H64.17V5.95681C64.17 5.67268 64.1237 5.49046 63.8303 5.38854C64.0588 5.29589 64.1947 5.05808 64.1916 4.81101ZM63.2836 5.16H62.6443V4.68747H63.2929C63.4504 4.68747 63.6234 4.71836 63.6234 4.91601C63.6234 5.11985 63.4597 5.16 63.2836 5.16ZM62.7679 7.92413H61.1403L60.4917 8.62829L59.8586 7.92413H57.8048L57.8017 10.0644H59.8215L60.4794 9.35406L61.1094 10.0644H62.1039L62.1069 9.3448C62.6907 9.3448 63.6295 9.48687 63.6295 8.6252C63.6295 8.0909 63.2497 7.92413 62.7679 7.92413ZM59.5621 9.61349H58.3082V9.18729H59.4293V8.75182H58.3082V8.36577H59.5961L60.1489 8.98963L59.5621 9.61349ZM61.5943 9.86674L60.8129 8.9989L61.5943 8.15267V9.86674ZM62.7617 8.90933H62.1069V8.36577H62.771C62.9439 8.36577 63.086 8.4368 63.086 8.6252C63.086 8.82286 62.9439 8.90933 62.7617 8.90933ZM61.7858 4.68747V4.23656H60.0717V6.37683H61.7858V5.93519H60.5844V5.50899H61.7518V5.07352H60.5844V4.68747H61.7858ZM65.9304 8.50166C65.9304 7.99516 65.4949 7.92413 65.0934 7.92413H63.8766L63.8735 10.0644H64.3862L64.3893 9.28303H64.9328C65.2726 9.28303 65.3899 9.3448 65.3899 9.70923L65.3868 10.0644H65.8995L65.9026 9.6382C65.9026 9.36333 65.847 9.17185 65.5629 9.06993C65.8007 8.97419 65.9273 8.73638 65.9304 8.50166ZM65.0286 8.84756H64.3893V8.36577H65.0379C65.1954 8.36577 65.3683 8.39666 65.3683 8.59431C65.3683 8.80741 65.2015 8.84756 65.0286 8.84756ZM59.6918 6.37683V4.23656H58.8394L58.231 5.68812L57.5608 4.23656H56.7238V6.26565L55.856 4.23656H55.0993L54.1821 6.37683H54.7349L54.9326 5.90431H55.9981L56.1957 6.37683H57.2396V4.70291L57.9808 6.37683H58.4317L59.173 4.70291V6.37683H59.6918ZM55.1148 5.45958L55.4607 4.60717L55.8159 5.45958H55.1148ZM69.8589 10.3671V10.2281C69.5253 10.401 69.7384 10.3671 65.0193 10.3671C65.0193 9.58878 65.0224 9.62893 65.0193 9.58878C64.9668 9.58569 64.9205 9.58569 64.729 9.58569C64.729 10.1385 64.7259 9.79571 64.7259 10.3671H63.5029C63.5029 9.99337 63.506 9.89454 63.506 9.46525C63.1972 9.65055 62.8018 9.66291 62.4467 9.65673C62.4467 10.1107 62.4436 9.91307 62.4436 10.3671H60.9334C60.7758 10.191 60.85 10.2713 60.4577 9.82968C60.3589 9.93777 60.0624 10.259 59.9605 10.3671H57.428V7.51646H59.9945C60.1489 7.68941 60.0809 7.6122 60.4732 8.04767C60.572 7.93957 60.85 7.63382 60.9581 7.51646H62.7493C63.052 7.51646 63.3053 7.57514 63.4998 7.68941V7.51646C65.1768 7.51646 65.4857 7.47322 65.8378 7.67397V7.51646H68.2529V7.67706C68.605 7.46395 68.8582 7.51646 70.2573 7.51646V7.67088C70.5754 7.48866 70.7699 7.51028 71.9343 7.51646V2.09938C71.9343 1.28095 71.2703 0.616943 70.4518 0.616943H55.6275C54.809 0.616943 54.145 1.28095 54.145 2.09938V5.49046C54.4353 4.8141 54.7534 4.06979 54.8584 3.8258H56.0845C56.2173 4.13773 56.134 3.94008 56.3625 4.47746V3.8258H57.7832C57.8727 4.01729 58.126 4.56702 58.2125 4.75233C58.3916 4.3323 58.5244 4.0142 58.6016 3.8258H61.7827C61.7827 3.82272 62.1378 3.8258 62.1409 3.8258C63.4906 3.83198 63.7963 3.8011 64.1299 3.98949V3.8258H65.3621V4.11303C65.5969 3.92463 65.915 3.8258 66.3103 3.8258H67.1627C67.1627 3.84125 67.2214 3.83507 67.2337 3.83507H68.2344C68.3641 4.13773 68.3147 4.02037 68.5061 4.47128V3.83507H69.8434C69.9948 4.08214 69.8125 3.77948 70.1893 4.40334V3.83507H71.4216V6.67641H70.1368C69.97 6.39845 70.0936 6.60846 69.7292 6.00005V6.67641H68.0985C67.9008 6.21932 68.0954 6.66714 67.8946 6.20388H67.3078C67.1781 6.51272 67.2399 6.36448 67.1102 6.67641H66.2825C65.9026 6.67641 65.5938 6.58376 65.3652 6.40154V6.67641H63.3114C63.3022 6.24712 63.3083 5.91048 63.3083 5.91048C63.2527 5.90122 63.2033 5.90431 63.0057 5.90431V6.6795H58.8209V6.32742C58.7437 6.50037 58.7375 6.50964 58.6634 6.6795H57.7523C57.6287 6.40463 57.6627 6.48184 57.5948 6.32742V6.6795H55.961C55.8313 6.36757 55.8931 6.51581 55.7633 6.20697H55.1704C55.0407 6.51581 55.1024 6.36757 54.9727 6.6795H54.1512V12.9706C54.1512 13.789 54.8152 14.453 55.6336 14.453H70.4611C71.2795 14.453 71.9435 13.789 71.9435 12.9706V10.1787C71.5513 10.435 70.9336 10.3671 69.8589 10.3671ZM70.98 8.37504H71.9096V7.92413H70.8935C70.4982 7.92413 70.1584 8.12796 70.1584 8.56343C70.1584 9.58261 71.4772 8.95875 71.4772 9.40966C71.4772 9.56716 71.3444 9.60731 71.2178 9.60731H70.2295L70.2264 10.0644H71.2147C71.4741 10.0644 71.7582 10.0088 71.9096 9.78953V8.99272C71.5853 8.56652 70.6958 8.95257 70.6958 8.57578C70.6958 8.39666 70.8379 8.37504 70.98 8.37504ZM69.2196 9.60423H68.2251L68.222 10.0613H69.2165C69.6736 10.0613 70.0256 9.88836 70.0256 9.38186C70.0256 8.35651 68.7007 9.03596 68.7007 8.56961C68.7007 8.39666 68.852 8.37195 68.9848 8.37195H69.9237V7.92104H68.8984C68.5031 7.92104 68.1726 8.12488 68.1726 8.56034C68.1726 9.57952 69.4913 8.94639 69.4913 9.40657C69.4883 9.57334 69.3462 9.60423 69.2196 9.60423ZM67.9163 8.36577V7.92413H66.2114L66.2084 10.0644H67.9132L67.9163 9.62276L66.7241 9.61349V9.18729H67.8946V8.75182H66.7272V8.36577H67.9163ZM66.1775 5.0272C66.1682 5.03337 66.1342 5.09514 66.1342 5.26192C66.1342 5.44722 66.162 5.49972 66.1682 5.5059C66.1744 5.50899 66.2022 5.52134 66.2732 5.52134L66.4987 4.9994C66.4647 4.9994 66.4338 4.99631 66.4029 4.99631C66.23 4.99631 66.1867 5.01793 66.1775 5.0272ZM66.3072 4.23348C65.5814 4.23348 65.2571 4.60408 65.2571 5.32368C65.2571 6.00931 65.5721 6.37374 66.2763 6.37374H66.8693L67.0669 5.90122H68.1263L68.3301 6.37374H69.3709V4.77086L70.3345 6.37374H71.0633V4.24274H70.5414V5.72827L69.6427 4.24274H68.8613V6.26256L67.9996 4.24274H67.2337L66.5079 5.92593H66.2794C65.8686 5.92593 65.7822 5.67576 65.7822 5.31133C65.7822 4.57629 66.267 4.69365 66.8044 4.70291V4.23348H66.3072ZM67.6074 4.60717L67.9533 5.45958H67.2492L67.6074 4.60717ZM64.485 4.23656V6.37683H65.007V4.23656H64.485Z" fill="#51DB49"/>
<path d="M86.5925 7.60281C86.5925 7.9797 86.2928 8.26654 85.9132 8.26654C85.6291 8.26654 85.419 8.10589 85.419 7.80348C85.419 7.42659 85.7125 7.12419 86.0894 7.12419C86.3768 7.12419 86.5925 7.3004 86.5925 7.60281ZM83.3249 6.10524H83.1798C83.1337 6.10524 83.087 6.13637 83.0809 6.18862L82.948 7.01356L83.2015 7.00411C83.5411 7.00411 83.8035 6.95797 83.8652 6.56552C83.9364 6.15138 83.674 6.10524 83.3249 6.10524ZM92.0958 6.10524H91.9569C91.9013 6.10524 91.864 6.13637 91.8579 6.18862L91.7284 7.01356L91.9752 7.00411C92.3766 7.00411 92.6545 6.91128 92.6545 6.44822C92.6512 6.12081 92.3588 6.10524 92.0958 6.10524ZM98.6276 2.0995V12.9705C98.6272 13.3635 98.4709 13.7404 98.1929 14.0183C97.915 14.2963 97.5381 14.4526 97.1451 14.453H82.321C81.9279 14.4526 81.551 14.2963 81.2731 14.0183C80.9952 13.7404 80.8388 13.3635 80.8384 12.9705V2.0995C80.8388 1.70644 80.9952 1.3296 81.2731 1.05166C81.551 0.773724 81.9279 0.617385 82.321 0.616943H97.1451C97.5381 0.617385 97.915 0.773724 98.1929 1.05166C98.4709 1.3296 98.6272 1.70644 98.6276 2.0995ZM84.8014 6.2809C84.8014 5.63218 84.3011 5.41594 83.7296 5.41594H82.4944C82.4545 5.41624 82.4161 5.43119 82.3865 5.45793C82.3569 5.48468 82.3381 5.52136 82.3337 5.56103L81.8273 8.71403C81.8179 8.77573 81.8646 8.83744 81.9263 8.83744H82.5133C82.5967 8.83744 82.674 8.74794 82.6834 8.66122L82.8224 7.83962C82.8535 7.61726 83.2298 7.69453 83.3783 7.69453C84.2616 7.69453 84.8019 7.16977 84.8019 6.28035L84.8014 6.2809ZM87.4019 6.55273H86.8148C86.6975 6.55273 86.6914 6.72283 86.6853 6.80622C86.5063 6.54384 86.2467 6.49714 85.9532 6.49714C85.1966 6.49714 84.619 7.16087 84.619 7.89298C84.619 8.49501 84.9959 8.88747 85.598 8.88747C85.8759 8.88747 86.2217 8.73627 86.4162 8.52002C86.3984 8.58252 86.388 8.64688 86.3851 8.71181C86.3851 8.78296 86.4162 8.83521 86.4841 8.83521H87.0155C87.0989 8.83521 87.17 8.74572 87.1856 8.659L87.5008 6.67336C87.5103 6.61444 87.4636 6.55273 87.4019 6.55273ZM88.6526 9.57622L90.6199 6.71616C90.6355 6.7006 90.6355 6.68503 90.6355 6.66391C90.6355 6.61166 90.5894 6.55607 90.5366 6.55607H89.9434C89.9158 6.55728 89.8889 6.5649 89.8648 6.57831C89.8407 6.59172 89.82 6.61056 89.8044 6.63334L88.9862 7.83795L88.6465 6.68003C88.6336 6.64494 88.6105 6.61447 88.5802 6.59251C88.5499 6.57054 88.5138 6.55805 88.4764 6.55662H87.8988C87.846 6.55662 87.7999 6.61221 87.7999 6.66447C87.7999 6.70171 88.4019 8.41885 88.4547 8.58228C88.3713 8.69958 87.8216 9.46559 87.8216 9.55843C87.8216 9.61402 87.8677 9.65738 87.9205 9.65738H88.5136C88.5414 9.65543 88.5683 9.64721 88.5923 9.63334C88.6164 9.61948 88.637 9.60032 88.6526 9.57733V9.57622ZM93.5723 6.2809C93.5723 5.63218 93.072 5.41594 92.5005 5.41594H91.2742C91.2333 5.41595 91.1936 5.43056 91.1625 5.45715C91.1313 5.48374 91.1106 5.52057 91.1041 5.56103L90.6038 8.71125C90.5977 8.77295 90.6438 8.83466 90.7028 8.83466H91.3359C91.3976 8.83466 91.4438 8.78852 91.4593 8.73571L91.5983 7.84017C91.6294 7.61782 92.0063 7.69509 92.1542 7.69509C93.0314 7.69509 93.5723 7.17033 93.5723 6.2809ZM96.1722 6.55273H95.5852C95.4679 6.55273 95.4618 6.72283 95.4524 6.80622C95.2822 6.54384 95.0199 6.49714 94.7202 6.49714C93.9637 6.49714 93.3861 7.16087 93.3861 7.89298C93.3861 8.49501 93.763 8.88747 94.365 8.88747C94.6524 8.88747 94.9982 8.73627 95.1833 8.52002C95.1738 8.56616 95.1522 8.66511 95.1522 8.71181C95.1522 8.78296 95.1833 8.83521 95.2511 8.83521H95.7853C95.8687 8.83521 95.9399 8.74572 95.9554 8.659L96.2706 6.67336C96.2801 6.61444 96.2339 6.55273 96.1722 6.55273ZM97.6393 5.52434C97.6393 5.46263 97.5931 5.41649 97.5403 5.41649H96.9688C96.9227 5.41649 96.876 5.45374 96.8699 5.49988L96.3696 8.71181L96.3607 8.72737C96.3607 8.78296 96.4068 8.83521 96.4685 8.83521H96.9783C97.0556 8.83521 97.1328 8.74572 97.1389 8.659L97.6393 5.53379V5.52434ZM94.8598 7.12419C94.4829 7.12419 94.1894 7.42381 94.1894 7.80348C94.1894 8.10311 94.4056 8.26654 94.6897 8.26654C95.0604 8.26654 95.3601 7.98248 95.3601 7.60281C95.3634 7.3004 95.1472 7.12419 94.8598 7.12419Z" fill="#51DB49"/>
</svg>
