<svg width="45" height="45" viewBox="0 0 45 45" fill="none" xmlns="http://www.w3.org/2000/svg">
<path d="M31.8111 33.1622C29.794 33.1622 28.1766 34.7796 28.1766 36.7967C28.1766 37.7607 28.5595 38.6851 29.2411 39.3667C29.9227 40.0483 30.8472 40.4312 31.8111 40.4312C32.775 40.4312 33.6995 40.0483 34.3811 39.3667C35.0627 38.6851 35.4456 37.7607 35.4456 36.7967C35.4456 35.8328 35.0627 34.9084 34.3811 34.2268C33.6995 33.5452 32.775 33.1622 31.8111 33.1622ZM2.73511 4.08625V7.72075H6.36961L12.9117 21.5137L10.4402 25.9659C10.1677 26.4748 10.0041 27.0745 10.0041 27.7105C10.0041 28.6744 10.387 29.5989 11.0686 30.2805C11.7502 30.9621 12.6747 31.345 13.6386 31.345H35.4456V27.7105H14.4018C14.2814 27.7105 14.1658 27.6626 14.0806 27.5774C13.9954 27.4922 13.9475 27.3767 13.9475 27.2562C13.9475 27.1653 13.9657 27.0926 14.0021 27.0381L15.6376 24.076H29.1761C30.539 24.076 31.7384 23.3127 32.3563 22.2042L38.862 10.4466C38.9892 10.1559 39.0801 9.84693 39.0801 9.538C39.0801 9.05603 38.8886 8.59381 38.5478 8.25301C38.207 7.91221 37.7448 7.72075 37.2628 7.72075H10.3857L8.67751 4.08625M13.6386 33.1622C11.6215 33.1622 10.0041 34.7796 10.0041 36.7967C10.0041 37.7607 10.387 38.6851 11.0686 39.3667C11.7502 40.0483 12.6747 40.4312 13.6386 40.4312C14.6025 40.4312 15.527 40.0483 16.2086 39.3667C16.8902 38.6851 17.2731 37.7607 17.2731 36.7967C17.2731 35.8328 16.8902 34.9084 16.2086 34.2268C15.527 33.5452 14.6025 33.1622 13.6386 33.1622Z" fill="#14351D"/>
</svg>
