<svg width="40" height="38" viewBox="0 0 40 38" fill="none" xmlns="http://www.w3.org/2000/svg">
<path d="M35.2498 15.0894H20.3918C19.4067 15.0894 18.4619 15.4545 17.7653 16.1045C17.0687 16.7544 16.6773 17.636 16.6773 18.5552V28.9526C16.6773 29.8718 17.0687 30.7534 17.7653 31.4034C18.4619 32.0533 19.4067 32.4185 20.3918 32.4185H22.1191C22.7304 32.4184 23.3324 32.5591 23.8715 32.8281C24.4106 33.0972 24.8702 33.4862 25.2095 33.9608L26.2756 35.4545C26.4452 35.6919 26.675 35.8865 26.9445 36.0211C27.2141 36.1556 27.5151 36.2261 27.8208 36.2261C28.1266 36.2261 28.4276 36.1556 28.6971 36.0211C28.9667 35.8865 29.1965 35.6919 29.3661 35.4545L30.4321 33.9625C30.7712 33.4876 31.2307 33.0983 31.7699 32.8289C32.309 32.5596 32.911 32.4186 33.5226 32.4185H35.2498C36.235 32.4185 37.1798 32.0533 37.8764 31.4034C38.573 30.7534 38.9643 29.8718 38.9643 28.9526V18.5552C38.9643 17.636 38.573 16.7544 37.8764 16.1045C37.1798 15.4545 36.235 15.0894 35.2498 15.0894Z" fill="#51DB49" stroke="#51DB49" stroke-width="2" stroke-linecap="round" stroke-linejoin="round"/>
<path d="M24.1063 9.89063V4.6919C24.1063 3.7727 23.715 2.89116 23.0184 2.24119C22.3218 1.59122 21.377 1.22607 20.3918 1.22607H5.53378C4.54863 1.22607 3.60383 1.59122 2.90723 2.24119C2.21062 2.89116 1.81927 3.7727 1.81927 4.6919V15.0894C1.81927 16.0086 2.21062 16.8901 2.90723 17.5401C3.60383 18.19 4.54863 18.5552 5.53378 18.5552H7.26103C7.87241 18.5551 8.47436 18.6958 9.01347 18.9649C9.55258 19.2339 10.0122 19.623 10.3515 20.0975L11.1055 21.1546" stroke="#51DB49" stroke-width="2" stroke-linecap="round" stroke-linejoin="round"/>
</svg>
