<svg width="38" height="39" viewBox="0 0 38 39" fill="none" xmlns="http://www.w3.org/2000/svg">
<path d="M18.9083 0.970337C29.267 0.970337 37.6639 9.36725 37.6639 19.726C37.6639 30.0848 29.267 38.4817 18.9083 38.4817C8.54951 38.4817 0.152588 30.0848 0.152588 19.726C0.152588 9.36725 8.54951 0.970337 18.9083 0.970337ZM18.9083 8.47261C18.4108 8.47261 17.9338 8.67021 17.582 9.02195C17.2303 9.37369 17.0327 9.85074 17.0327 10.3482V19.726C17.0328 20.2234 17.2305 20.7004 17.5822 21.052L23.2089 26.6787C23.5627 27.0204 24.0365 27.2094 24.5282 27.2052C25.02 27.2009 25.4904 27.0036 25.8381 26.6559C26.1859 26.3082 26.3831 25.8377 26.3874 25.346C26.3917 24.8542 26.2026 24.3804 25.861 24.0267L20.7838 18.9495V10.3482C20.7838 9.85074 20.5862 9.37369 20.2345 9.02195C19.8828 8.67021 19.4057 8.47261 18.9083 8.47261Z" fill="#51DB49"/>
</svg>
