<svg width="21" height="22" viewBox="0 0 21 22" fill="none" xmlns="http://www.w3.org/2000/svg">
<path d="M10.9331 0.110474C16.4561 0.110474 20.9331 4.58747 20.9331 10.1105C20.9331 15.6335 16.4561 20.1105 10.9331 20.1105C5.41011 20.1105 0.933105 15.6335 0.933105 10.1105C0.933105 4.58747 5.41011 0.110474 10.9331 0.110474ZM10.9331 4.11047C10.6679 4.11047 10.4135 4.21583 10.226 4.40337C10.0385 4.5909 9.93311 4.84526 9.93311 5.11047V10.1105C9.93316 10.3757 10.0386 10.63 10.2261 10.8175L13.2261 13.8175C13.4147 13.9996 13.6673 14.1004 13.9295 14.0981C14.1917 14.0959 14.4425 13.9907 14.6279 13.8053C14.8133 13.6199 14.9185 13.3691 14.9208 13.1069C14.9231 12.8447 14.8223 12.5921 14.6401 12.4035L11.9331 9.69647V5.11047C11.9331 4.84526 11.8277 4.5909 11.6402 4.40337C11.4527 4.21583 11.1983 4.11047 10.9331 4.11047Z" fill="#51DB49"/>
</svg>
