<svg width="18" height="18" viewBox="0 0 18 18" fill="none" xmlns="http://www.w3.org/2000/svg">
<path d="M5.48707 0.442871H12.61C15.3235 0.442871 17.5282 2.64759 17.5282 5.36109V12.484C17.5282 13.7884 17.0101 15.0394 16.0877 15.9617C15.1654 16.8841 13.9144 17.4022 12.61 17.4022H5.48707C2.77357 17.4022 0.568848 15.1975 0.568848 12.484V5.36109C0.568848 4.0567 1.08702 2.80573 2.00936 1.88338C2.9317 0.961039 4.18267 0.442871 5.48707 0.442871ZM5.31747 2.13881C4.50785 2.13881 3.73139 2.46043 3.1589 3.03292C2.58641 3.60541 2.26478 4.38187 2.26478 5.19149V12.6536C2.26478 14.3411 3.63001 15.7063 5.31747 15.7063H12.7796C13.5892 15.7063 14.3657 15.3847 14.9382 14.8122C15.5107 14.2397 15.8323 13.4632 15.8323 12.6536V5.19149C15.8323 3.50404 14.4671 2.13881 12.7796 2.13881H5.31747ZM13.5004 3.41076C13.7815 3.41076 14.0511 3.52244 14.2499 3.72122C14.4487 3.92 14.5603 4.1896 14.5603 4.47072C14.5603 4.75184 14.4487 5.02145 14.2499 5.22023C14.0511 5.41901 13.7815 5.53068 13.5004 5.53068C13.2192 5.53068 12.9496 5.41901 12.7509 5.22023C12.5521 5.02145 12.4404 4.75184 12.4404 4.47072C12.4404 4.1896 12.5521 3.92 12.7509 3.72122C12.9496 3.52244 13.2192 3.41076 13.5004 3.41076ZM9.04853 4.68271C10.173 4.68271 11.2514 5.12941 12.0466 5.92454C12.8417 6.71966 13.2884 7.79808 13.2884 8.92256C13.2884 10.047 12.8417 11.1255 12.0466 11.9206C11.2514 12.7157 10.173 13.1624 9.04853 13.1624C7.92406 13.1624 6.84564 12.7157 6.05051 11.9206C5.25539 11.1255 4.80869 10.047 4.80869 8.92256C4.80869 7.79808 5.25539 6.71966 6.05051 5.92454C6.84564 5.12941 7.92406 4.68271 9.04853 4.68271ZM9.04853 6.37865C8.37385 6.37865 7.7268 6.64667 7.24972 7.12374C6.77265 7.60082 6.50463 8.24787 6.50463 8.92256C6.50463 9.59724 6.77265 10.2443 7.24972 10.7214C7.7268 11.1984 8.37385 11.4665 9.04853 11.4665C9.72322 11.4665 10.3703 11.1984 10.8473 10.7214C11.3244 10.2443 11.5924 9.59724 11.5924 8.92256C11.5924 8.24787 11.3244 7.60082 10.8473 7.12374C10.3703 6.64667 9.72322 6.37865 9.04853 6.37865Z" fill="#51DB49"/>
</svg>
