<svg width="15" height="21" viewBox="0 0 15 21" fill="none" xmlns="http://www.w3.org/2000/svg">
<path d="M7.93311 10.0175C7.27006 10.0175 6.63418 9.75409 6.16534 9.28525C5.6965 8.81641 5.43311 8.18053 5.43311 7.51749C5.43311 6.85445 5.6965 6.21856 6.16534 5.74972C6.63418 5.28088 7.27006 5.01749 7.93311 5.01749C8.59615 5.01749 9.23203 5.28088 9.70087 5.74972C10.1697 6.21856 10.4331 6.85445 10.4331 7.51749C10.4331 7.84579 10.3684 8.17088 10.2428 8.4742C10.1172 8.77751 9.93302 9.05311 9.70087 9.28525C9.46873 9.5174 9.19313 9.70155 8.88981 9.82719C8.5865 9.95282 8.26141 10.0175 7.93311 10.0175ZM7.93311 0.517487C6.07659 0.517487 4.29611 1.25498 2.98336 2.56774C1.6706 3.88049 0.933105 5.66097 0.933105 7.51749C0.933105 12.7675 7.93311 20.5175 7.93311 20.5175C7.93311 20.5175 14.9331 12.7675 14.9331 7.51749C14.9331 5.66097 14.1956 3.88049 12.8829 2.56774C11.5701 1.25498 9.78962 0.517487 7.93311 0.517487Z" fill="#51DB49"/>
</svg>
