<svg width="30" height="39" viewBox="0 0 30 39" fill="none" xmlns="http://www.w3.org/2000/svg">
<path d="M14.9546 29.1868C15.9139 29.1868 16.834 28.8052 17.5123 28.1259C18.1907 27.4466 18.5718 26.5253 18.5718 25.5647C18.5718 24.6041 18.1907 23.6828 17.5123 23.0035C16.834 22.3242 15.9139 21.9426 14.9546 21.9426C13.9953 21.9426 13.0752 22.3242 12.3969 23.0035C11.7185 23.6828 11.3374 24.6041 11.3374 25.5647C11.3374 26.5253 11.7185 27.4466 12.3969 28.1259C13.0752 28.8052 13.9953 29.1868 14.9546 29.1868ZM25.8061 12.8874C26.7654 12.8874 27.6855 13.269 28.3638 13.9483C29.0422 14.6275 29.4233 15.5488 29.4233 16.5095V34.6199C29.4233 35.5806 29.0422 36.5018 28.3638 37.1811C27.6855 37.8604 26.7654 38.242 25.8061 38.242H4.1031C3.14377 38.242 2.22372 37.8604 1.54537 37.1811C0.867024 36.5018 0.485931 35.5806 0.485931 34.6199V16.5095C0.485931 15.5488 0.867024 14.6275 1.54537 13.9483C2.22372 13.269 3.14377 12.8874 4.1031 12.8874H5.91168V9.2653C5.91168 6.86371 6.86441 4.56048 8.56029 2.8623C10.2562 1.16411 12.5563 0.210083 14.9546 0.210083C16.1421 0.210083 17.318 0.444303 18.4152 0.899371C19.5123 1.35444 20.5092 2.02144 21.3489 2.8623C22.1886 3.70315 22.8547 4.70139 23.3092 5.80002C23.7636 6.89865 23.9975 8.07615 23.9975 9.2653V12.8874H25.8061ZM14.9546 3.83217C13.5156 3.83217 12.1355 4.40459 11.118 5.4235C10.1005 6.44241 9.52885 7.82435 9.52885 9.2653V12.8874H20.3803V9.2653C20.3803 7.82435 19.8087 6.44241 18.7912 5.4235C17.7737 4.40459 16.3936 3.83217 14.9546 3.83217Z" fill="#51DB49"/>
</svg>
