<svg width="119" height="55" viewBox="0 0 119 55" fill="none" xmlns="http://www.w3.org/2000/svg">
<g clip-path="url(#clip0_3_15)">
<path d="M64.5582 26.0632C64.4563 26.1777 64.3322 26.2701 64.1935 26.3349C64.0548 26.3998 63.9045 26.4356 63.7516 26.4402C63.2749 26.4402 62.9633 25.9988 62.9633 25.3091V15.3032C62.9633 12.912 61.6158 11.4682 59.251 11.4682C56.3636 11.4682 54.7962 14.3375 54.0996 16.4435V15.3032C54.0996 12.912 52.7522 11.4682 50.4331 11.4682C47.5733 11.4682 45.9692 14.3375 45.2726 16.4067V11.9556H39.1404C39.1088 11.9556 39.0785 11.9682 39.0561 11.9906C39.0338 12.013 39.0212 12.0434 39.0212 12.0751V12.1947C39.837 12.581 40.1395 13.5926 40.1395 14.8433V24.2055C40.1395 25.4562 39.837 26.477 39.0212 26.8541V26.9736C39.0212 27.0063 39.0334 27.0377 39.0555 27.0616C39.0776 27.0855 39.108 27.1001 39.1404 27.1024H46.2442C46.2769 27.0985 46.3073 27.0837 46.3306 27.0603C46.3538 27.037 46.3686 27.0064 46.3725 26.9736V26.8541C45.5567 26.477 45.2359 25.4562 45.2359 24.2055V18.2093C45.2359 15.7446 47.1241 12.6913 48.1966 12.6913C48.884 12.6913 49.0124 13.3535 49.0124 14.0432V23.764C49.049 26.1919 50.3598 27.5898 52.7155 27.5898C53.2985 27.5839 53.8744 27.4612 54.4096 27.2291C54.9447 26.9969 55.4283 26.66 55.832 26.2379L55.7037 26.0448C55.5983 26.1598 55.471 26.2524 55.3293 26.3172C55.1876 26.382 55.0344 26.4176 54.8787 26.4219C54.4112 26.4219 54.0996 25.9804 54.0996 25.2907V18.2093C54.0996 15.7446 55.9786 12.6913 57.0511 12.6913C57.7385 12.6913 57.876 13.3535 57.876 14.0432V23.764C57.876 26.1919 59.2235 27.6082 61.5425 27.6082C62.1255 27.6022 62.7014 27.4796 63.2366 27.2475C63.7717 27.0153 64.2553 26.6784 64.659 26.2563L64.5582 26.0632ZM80.434 26.0632C80.2215 26.2908 79.9287 26.4261 79.6182 26.4402C79.1507 26.4402 78.8299 25.9988 78.8299 25.3091V17.3264C78.8299 13.9788 76.2175 11.4682 71.9553 11.4682C69.0588 11.4682 66.0706 12.8569 66.0706 15.5239C66.0493 15.8891 66.1025 16.2549 66.2272 16.5988C66.3518 16.9426 66.5452 17.2573 66.7954 17.5235C67.0456 17.7896 67.3474 18.0017 67.6822 18.1467C68.017 18.2916 68.3779 18.3664 68.7425 18.3664C69.1072 18.3664 69.468 18.2916 69.8029 18.1467C70.1377 18.0017 70.4395 17.7896 70.6897 17.5235C70.9399 17.2573 71.1332 16.9426 71.2579 16.5988C71.3825 16.2549 71.4358 15.8891 71.4145 15.5239C71.0599 15.2395 70.7701 14.8822 70.5646 14.4762C70.3591 14.0701 70.2425 13.6246 70.2229 13.1695C70.2229 12.2499 70.6903 11.7165 71.3778 11.7165C72.8902 11.7165 73.7335 13.7581 73.7335 15.3399C73.7335 20.8579 64.5673 18.0989 64.5673 23.764C64.5655 24.2819 64.6687 24.7947 64.8707 25.2712C65.0727 25.7477 65.3692 26.1781 65.7422 26.536C66.1152 26.8939 66.5569 27.1719 67.0404 27.353C67.5239 27.5342 68.0391 27.6148 68.5546 27.5898C71.7353 27.5898 73.1377 24.8768 73.7335 22.734V23.7456C73.7335 26.1919 75.0901 27.5898 77.4641 27.5898C78.0445 27.5845 78.6179 27.4621 79.1502 27.2298C79.6824 26.9976 80.1627 26.6602 80.5623 26.2379L80.434 26.0632ZM73.7335 20.8579C73.7335 23.3226 72.2303 26.2839 70.8187 26.2839C70.1587 26.2839 69.6912 25.6217 69.6912 24.6745C69.6912 21.9615 72.7711 20.2325 73.7335 16.701V20.8579ZM81.7081 6.19851C81.4792 6.18207 81.2494 6.21318 81.033 6.2899C80.8167 6.36662 80.6184 6.4873 80.4506 6.64439C80.2829 6.80149 80.1492 6.99162 80.058 7.2029C79.9669 7.41418 79.9201 7.64206 79.9207 7.8723C80.2847 8.01444 80.594 8.26954 80.8034 8.60041C81.0128 8.93127 81.1114 9.32059 81.0848 9.71162C81.146 10.4547 80.9555 11.1968 80.544 11.8176L80.764 11.9832C82.368 10.5577 83.5138 9.4909 83.5138 8.06542C83.5307 7.82058 83.4961 7.57491 83.412 7.34441C83.328 7.11391 83.1966 6.90375 83.0262 6.72763C82.8559 6.5515 82.6504 6.41335 82.4233 6.32219C82.1962 6.23102 81.9525 6.18888 81.7081 6.19851ZM87.6844 13.7397C87.6844 12.4706 88.5277 11.7165 90.5076 11.7165C92.0475 11.7165 92.8633 12.6361 92.8633 13.4822C92.8901 13.8293 92.8182 14.1768 92.656 14.4845C92.4937 14.7922 92.2477 15.0474 91.9467 15.2204C91.9866 15.9042 92.2855 16.5469 92.7822 17.0169C93.2789 17.4869 93.9359 17.7487 94.6186 17.7487C95.3014 17.7487 95.9583 17.4869 96.455 17.0169C96.9517 16.5469 97.2506 15.9042 97.2906 15.2204C97.2906 12.535 93.6791 11.4682 90.4709 11.4682C86.5112 11.4682 83.8713 13.4546 83.8713 16.1676C83.8713 21.5844 93.8258 21.6856 93.8258 25.3642C93.8258 26.7529 92.7075 27.3875 90.7459 27.3875C88.9127 27.3875 87.9961 26.5322 87.9961 25.2079C88.0083 24.8897 88.0902 24.5781 88.236 24.2952C88.3817 24.0122 88.5877 23.765 88.8394 23.5709C88.8394 22.8611 88.5583 22.1804 88.0581 21.6785C87.5579 21.1766 86.8794 20.8947 86.172 20.8947C85.4646 20.8947 84.7861 21.1766 84.2859 21.6785C83.7857 22.1804 83.5046 22.8611 83.5046 23.5709C83.5046 26.0264 86.2545 27.6358 90.5626 27.6358C94.8707 27.6358 97.6297 25.6217 97.6297 22.9087C97.6297 17.4736 87.6844 17.3908 87.6844 13.7397ZM16.3716 52.8805C16.2687 52.9961 16.1431 53.0892 16.0028 53.154C15.8624 53.2189 15.7103 53.2541 15.5558 53.2576C15.0884 53.2576 14.7675 52.8161 14.7675 52.1264V44.1437C14.7675 40.7962 12.1644 38.2855 7.89292 38.2855C4.99641 38.2855 2.00824 39.665 2.00824 42.3412C1.99298 42.6996 2.05149 43.0574 2.18011 43.3921C2.30874 43.7269 2.50472 44.0315 2.75585 44.2869C3.00697 44.5423 3.30785 44.7431 3.63972 44.8767C3.97159 45.0102 4.32733 45.0738 4.68476 45.0634C5.04505 45.0743 5.40365 45.0097 5.73768 44.8738C6.07171 44.7379 6.37385 44.5336 6.62482 44.274C6.87579 44.0144 7.07008 43.7052 7.1953 43.3661C7.32053 43.027 7.37394 42.6654 7.35212 42.3044C7.00057 42.0179 6.71344 41.66 6.50964 41.2543C6.30584 40.8485 6.18998 40.404 6.16968 39.9501C6.16968 39.0304 6.62799 38.497 7.32462 38.497C8.82787 38.497 9.68949 40.5386 9.68949 42.1205C9.68949 47.6384 0.468326 44.8794 0.468326 50.5446C0.463603 51.0668 0.566025 51.5845 0.769221 52.0653C0.972418 52.5462 1.27204 52.9799 1.64947 53.3396C2.02689 53.6993 2.47403 53.9773 2.96309 54.1562C3.45216 54.3351 3.97267 54.4111 4.49227 54.3795C7.67293 54.3795 9.07536 51.6757 9.68949 49.5237V50.5813C9.68949 53.0092 11.0278 54.4163 13.356 54.4163C13.9382 54.411 14.5136 54.2896 15.0486 54.0591C15.5837 53.8286 16.0677 53.4936 16.4725 53.0736L16.3716 52.8805ZM9.68949 47.6752C9.68949 50.1399 8.16791 53.1012 6.75632 53.1012C6.09635 53.1012 5.62888 52.4391 5.62888 51.4918C5.62888 48.7328 8.70871 47.0498 9.68949 43.5183V47.6752ZM24.9878 34.4965C20.7072 34.4965 18.104 37.0163 18.104 40.3547V41.5595H16.9674V41.817H18.104V51.0136C18.104 52.2643 17.7924 53.2851 16.9674 53.6622V53.7818C16.9696 53.8152 16.9838 53.8467 17.0074 53.8704C17.031 53.8941 17.0624 53.9083 17.0958 53.9105H24.1904C24.2253 53.9106 24.259 53.8973 24.2845 53.8734C24.31 53.8495 24.3255 53.8167 24.3279 53.7818V53.6622C23.5121 53.2851 23.1913 52.2643 23.1913 51.0136V41.817L27.1235 42.1205V41.5595H23.1913V38.3682C23.1913 36.7956 24.0437 34.754 25.547 34.754C26.2436 34.754 26.7111 35.315 26.7111 36.1978C26.6922 36.6553 26.5751 37.1032 26.3679 37.5112C26.1607 37.919 25.8681 38.2773 25.5103 38.5614C25.5001 38.9164 25.5624 39.2697 25.6935 39.5996C25.8245 39.9296 26.0214 40.2291 26.2721 40.4798C26.5229 40.7305 26.8221 40.9271 27.1514 41.0574C27.4806 41.1877 27.833 41.249 28.1868 41.2376C28.7895 41.2509 29.3784 41.0561 29.8551 40.6858C30.1487 40.4603 30.3895 40.173 30.5606 39.8441C30.7316 39.5152 30.8287 39.1527 30.845 38.7821C30.8538 38.7088 30.8538 38.6347 30.845 38.5614C30.8633 35.8668 27.8752 34.4965 24.9878 34.4965ZM41.1111 33.4848C37.683 33.4848 36.2164 37.2647 35.0431 43.2241V38.7821H28.9476C28.9133 38.784 28.8807 38.7979 28.8556 38.8214C28.8305 38.845 28.8144 38.8766 28.8101 38.9108V39.0304C29.1103 39.1943 29.3639 39.4323 29.5468 39.722C29.7296 40.0117 29.8357 40.3434 29.8551 40.6858C29.9236 41.0122 29.9543 41.3455 29.9467 41.679V51.0228C29.9467 52.2735 29.6351 53.2943 28.8101 53.6714V53.791C28.8144 53.8252 28.8305 53.8568 28.8556 53.8804C28.8807 53.9039 28.9133 53.9178 28.9476 53.9197H36.0514C36.0831 53.9155 36.1123 53.9003 36.134 53.8768C36.1558 53.8533 36.1687 53.823 36.1706 53.791V53.6714C35.3548 53.2943 35.0431 52.2735 35.0431 51.0228V45.5048C35.0431 43.5827 36.2347 37.3106 38.4071 37.3106C38.8104 37.3106 39.5712 38.1199 40.8911 38.1199C42.6144 38.1199 43.751 37.2003 43.751 35.7932C43.751 34.3861 42.8344 33.4848 41.1111 33.4848ZM44.4659 38.2855C42.8698 38.2544 41.3005 38.7009 39.9582 39.5681C38.6159 40.4352 37.5613 41.6838 36.929 43.1545C36.2966 44.6253 36.115 46.2517 36.4073 47.8264C36.6997 49.4011 37.4527 50.8528 38.5705 51.9964C39.6883 53.1401 41.1202 53.9239 42.6836 54.248C44.2471 54.5721 45.8713 54.4218 47.3493 53.8162C48.8273 53.2106 50.0921 52.1772 50.9825 50.8476C51.8729 49.5181 52.3485 47.9527 52.3488 46.3509C52.3597 45.3018 52.1644 44.2609 51.774 43.2876C51.3836 42.3143 50.8059 41.4278 50.0737 40.6787C49.3416 39.9296 48.4695 39.3327 47.5073 38.9221C46.545 38.5114 45.5116 38.2951 44.4659 38.2855ZM44.4659 54.1772C43.0177 54.1772 41.8261 50.6457 41.8261 46.3509C41.8261 42.0561 43.0177 38.5338 44.4659 38.5338C45.9142 38.5338 47.1058 42.0653 47.1058 46.3509C47.1058 50.6365 45.9417 54.1772 44.4659 54.1772ZM78.3808 52.8805C78.1683 53.1081 77.8755 53.2434 77.565 53.2576C77.0883 53.2576 76.7675 52.8161 76.7675 52.1264V42.1205C76.7675 39.7293 75.4201 38.2855 73.101 38.2855C70.2045 38.2855 68.6371 41.1548 67.9497 43.2608V42.1205C67.9497 39.7293 66.6022 38.2855 64.2832 38.2855C61.4233 38.2855 59.8284 41.1548 59.1318 43.2241V38.7821H52.9538C52.9205 38.7843 52.8891 38.7985 52.8655 38.8222C52.8419 38.8459 52.8276 38.8774 52.8255 38.9108V39.0304C53.6504 39.4167 53.9621 40.4283 53.9621 41.679V51.0228C53.9621 52.2735 53.6504 53.2943 52.8255 53.6714V53.791C52.8276 53.8244 52.8419 53.8559 52.8655 53.8796C52.8891 53.9033 52.9205 53.9175 52.9538 53.9197H60.0484C60.0834 53.9198 60.117 53.9065 60.1425 53.8826C60.1681 53.8587 60.1836 53.8259 60.1859 53.791V53.6714C59.361 53.2943 59.0493 52.2735 59.0493 51.0228V45.0634C59.0493 42.5987 60.8825 39.5454 62.0008 39.5454C62.6883 39.5454 62.8258 40.2076 62.8258 40.8973V50.5813C62.8258 53.0092 64.1732 54.4163 66.4922 54.4163C67.0747 54.4121 67.6504 54.2911 68.1855 54.0605C68.7207 53.8299 69.2046 53.4944 69.6087 53.0736L69.4712 52.8805C69.3693 52.995 69.2452 53.0874 69.1066 53.1522C68.9679 53.2171 68.8175 53.2529 68.6646 53.2576C68.188 53.2576 67.8763 52.8161 67.8763 52.1264V45.0634C67.8763 42.5987 69.7646 39.5454 70.8278 39.5454C71.5245 39.5454 71.6436 40.2076 71.6436 40.8973V50.5813C71.6436 53.0092 72.9911 54.4163 75.3101 54.4163C75.8929 54.4147 76.4694 54.2949 77.0049 54.0642C77.5405 53.8334 78.024 53.4965 78.4266 53.0736L78.3808 52.8805ZM94.2474 52.8805C94.142 52.9955 94.0147 53.0881 93.873 53.1529C93.7313 53.2177 93.5781 53.2533 93.4224 53.2576C92.9641 53.2576 92.6433 52.8161 92.6433 52.1264V44.1437C92.6433 40.7962 90.0401 38.2855 85.7595 38.2855C82.863 38.2855 79.884 39.665 79.884 42.3412C79.8627 42.7064 79.916 43.0722 80.0406 43.4161C80.1652 43.7599 80.3586 44.0746 80.6088 44.3408C80.859 44.6069 81.1608 44.819 81.4956 44.964C81.8304 45.1089 82.1913 45.1837 82.5559 45.1837C82.9206 45.1837 83.2814 45.1089 83.6163 44.964C83.9511 44.819 84.2529 44.6069 84.5031 44.3408C84.7533 44.0746 84.9467 43.7599 85.0713 43.4161C85.1959 43.0722 85.2492 42.7064 85.2279 42.3412C84.8733 42.0568 84.5835 41.6996 84.378 41.2935C84.1725 40.8874 84.056 40.4419 84.0363 39.9869C84.0363 39.0672 84.5038 38.5338 85.2004 38.5338C86.7036 38.5338 87.5561 40.5754 87.5561 42.1572C87.5561 47.6752 78.3441 44.9162 78.3441 50.5813C78.3394 51.1036 78.4418 51.6213 78.645 52.1021C78.8482 52.5829 79.1478 53.0167 79.5252 53.3764C79.9027 53.7361 80.3498 54.014 80.8389 54.1929C81.3279 54.3719 81.8484 54.4479 82.368 54.4163C85.5395 54.4163 86.9511 51.7125 87.5561 49.5605V50.5813C87.5561 53.0092 88.9035 54.4163 91.2226 54.4163C91.805 54.4121 92.3807 54.2911 92.9159 54.0605C93.451 53.8299 93.9349 53.4944 94.3391 53.0736L94.2474 52.8805ZM87.5469 47.6752C87.5469 50.1399 86.0345 53.1012 84.6138 53.1012C83.9538 53.1012 83.4955 52.4391 83.4955 51.4918C83.4955 48.7328 86.5753 47.0498 87.5469 43.5183V47.6752ZM106.31 38.2855C103.194 38.2855 102.029 41.0445 101.058 44.1437V38.7821H94.9532C94.9215 38.7863 94.8923 38.8015 94.8705 38.825C94.8488 38.8485 94.8359 38.8788 94.834 38.9108V39.0304C95.6498 39.4167 95.9706 40.4283 95.9706 41.679V51.0228C95.9706 52.2735 95.6498 53.2943 94.834 53.6714V53.791C94.8359 53.823 94.8488 53.8533 94.8705 53.8768C94.8923 53.9003 94.9215 53.9155 94.9532 53.9197H102.066C102.099 53.9175 102.131 53.9033 102.154 53.8796C102.178 53.8559 102.192 53.8244 102.194 53.791V53.6714C101.37 53.2943 101.058 52.2735 101.058 51.0228V45.5048C101.018 45.1049 101.065 44.7011 101.194 44.3206C101.323 43.9401 101.531 43.5917 101.806 43.299C102.08 43.0062 102.414 42.7758 102.785 42.6233C103.155 42.4708 103.554 42.3997 103.954 42.4148C104.415 42.3998 104.873 42.5014 105.285 42.7104C105.696 42.9193 106.049 43.2288 106.31 43.6103C107.018 43.6103 107.696 43.3284 108.196 42.8265C108.696 42.3246 108.977 41.6439 108.977 40.9341C108.977 40.2243 108.696 39.5436 108.196 39.0417C107.696 38.5398 107.018 38.2579 106.31 38.2579V38.2855ZM118.226 39.3523V38.7821H115.861V35.7564H115.559C114.87 36.6879 113.975 37.4461 112.944 37.9712C111.913 38.4963 110.775 38.7739 109.619 38.7821V39.0304H110.774V50.2595C110.774 53.0184 112.286 54.4163 114.926 54.4163C116.157 54.4095 117.338 53.9289 118.226 53.0736L118.098 52.8805C117.828 53.117 117.484 53.2505 117.126 53.2576C116.274 53.2576 115.861 52.5678 115.861 51.4918V39.0304L118.226 39.3523ZM44.3101 1.11279C44.3162 0.734576 44.2573 0.358138 44.136 0C43.6941 0.867596 42.9741 1.5608 42.0919 1.96807C40.9278 2.63943 39.6812 3.16363 38.4896 3.8074C37.8502 4.12372 37.2528 4.51919 36.7114 4.98456C35.0614 6.502 34.7681 8.46088 34.9331 10.5577C34.9331 10.852 35.0614 10.8796 35.3181 10.7692C36.4838 10.2831 37.5908 9.6661 38.6179 8.92991C40.1854 7.8669 41.4492 6.41187 42.2844 4.70866C42.4494 4.36839 42.5869 4.00052 42.761 3.55909C42.761 3.71543 42.761 3.77981 42.761 3.83499C42.5759 5.03625 42.1111 6.17681 41.4044 7.16416C40.4559 8.38322 39.271 9.39684 37.9213 10.1439C37.0688 10.6589 36.1614 11.0635 35.3639 11.6337C34.8831 11.9719 34.4748 12.4035 34.1632 12.9028C34.0244 13.1211 33.9751 13.3847 34.0257 13.6386C34.1977 13.3548 34.4239 13.108 34.6913 12.9123C34.9588 12.7166 35.2621 12.5759 35.5839 12.4982C37.1114 12.0108 38.5955 11.3955 40.0203 10.6589C41.086 10.0988 42.0104 9.30254 42.7235 8.33051C43.4366 7.35848 43.9197 6.23623 44.136 5.04894C44.3417 3.74767 44.4002 2.42723 44.3101 1.11279ZM37.9671 18.1081C37.9404 17.6606 37.8853 17.2152 37.8021 16.7746C37.7579 16.4867 37.6873 16.2035 37.5913 15.9285C37.5201 15.6439 37.4219 15.3667 37.298 15.1008C37.298 14.9905 37.2063 14.8801 37.1605 14.7698C37.1147 14.6594 37.133 14.7146 37.133 14.6134C36.8829 14.0701 36.5757 13.5552 36.2164 13.0776C35.1348 12.5994 33.7782 14.4111 33.7782 14.4111C33.6034 13.8932 33.5981 13.3329 33.763 12.8118C33.9279 12.2907 34.2543 11.836 34.6948 11.5142C34.6573 11.4835 34.6175 11.4558 34.5756 11.4314C34.3571 11.2543 34.1275 11.0915 33.8882 10.944C33.7782 10.8704 33.6682 10.8152 33.5765 10.7416L33.4665 10.6681C33.248 10.54 33.0214 10.4264 32.7882 10.3278C32.6629 10.2686 32.5344 10.2164 32.4033 10.1714C32.1309 10.063 31.8524 9.97088 31.5691 9.89555L31.2392 9.82198L30.7808 9.73001C30.57 9.73001 30.35 9.67483 30.1392 9.65644C29.9376 9.65644 29.7359 9.65644 29.5251 9.65644C28.3815 9.68034 27.2538 9.93007 26.2064 10.3914C25.159 10.8527 24.2124 11.5165 23.4208 12.3449C22.6292 13.1733 22.008 14.1501 21.5927 15.2194C21.1774 16.2888 20.9762 17.4298 21.0005 18.5771C20.9916 19.8069 21.2307 21.0258 21.7032 22.1605C22.1758 23.2953 22.8721 24.3225 23.7504 25.1803C23.8512 25.2815 23.9612 25.3734 24.0529 25.4562C24.2601 25.6465 24.4807 25.8217 24.7128 25.9804C24.9373 26.1424 25.1698 26.2928 25.4095 26.431C25.5378 26.4954 25.6661 26.5598 25.7853 26.6334C26.1525 26.8305 26.5397 26.9877 26.9402 27.1024C27.7555 27.3774 28.61 27.5172 29.4701 27.5162C29.7176 27.5162 29.9651 27.5162 30.2034 27.5162C30.5116 27.4855 30.8176 27.4364 31.12 27.3691C31.2947 27.3337 31.4663 27.2845 31.6333 27.222C31.7671 27.1906 31.8987 27.1506 32.0274 27.1024C32.5593 26.9397 33.07 26.7143 33.549 26.431L33.8973 26.2103L34.2548 25.9804C34.4823 25.8193 34.6996 25.6442 34.9056 25.4562C35.2305 25.1697 35.5367 24.8625 35.8222 24.5365C35.9964 24.3342 36.1706 24.0951 36.3355 23.8744C37.448 22.3206 38.0416 20.4534 38.0313 18.5404C37.9763 18.3932 37.9763 18.2553 37.9671 18.1081ZM29.4884 27.222C27.6552 27.222 26.1153 23.3318 26.1153 18.5771C26.1153 13.8225 27.646 9.91394 29.4884 9.91394C31.3308 9.91394 32.8432 13.7949 32.8432 18.5771C32.8432 23.3594 31.3125 27.222 29.4884 27.222ZM21.3305 23.856C20.5843 22.6015 20.095 21.2101 19.8914 19.7635L18.544 11.4866C18.379 10.8244 18.2415 10.2266 18.0582 9.64724C17.8179 8.82308 17.3296 8.09356 16.6601 7.55853C15.9907 7.0235 15.1728 6.70909 14.3184 6.65834C13.4018 6.58477 12.4118 6.60316 11.4677 6.65834C11.3142 6.64508 11.1597 6.66487 11.0144 6.71639C10.8692 6.7679 10.7366 6.84996 10.6255 6.95706C10.5144 7.06416 10.4274 7.19383 10.3703 7.3374C10.3132 7.48097 10.2874 7.63512 10.2945 7.78953C10.2945 8.46088 10.7344 8.90232 11.5227 8.91151C12.311 8.92071 12.9068 8.91151 13.6034 8.91151C13.8924 8.86906 14.187 8.88626 14.4691 8.96207C14.7512 9.03788 15.0149 9.1707 15.2441 9.35239C15.4732 9.53407 15.663 9.7608 15.8017 10.0187C15.9404 10.2765 16.0252 10.5601 16.0508 10.852C17.0591 15.3583 18.0765 19.8647 19.0573 24.3894C19.0633 24.8112 18.9756 25.229 18.8007 25.6126C18.6998 25.916 18.5623 26.1919 18.4523 26.477H19.8914C20.1946 26.4734 20.4914 26.3891 20.7515 26.2327C21.0117 26.0764 21.2258 25.8537 21.3721 25.5872C21.5184 25.3207 21.5916 25.0201 21.5843 24.716C21.577 24.4118 21.4895 24.1151 21.3305 23.856ZM22.2471 28.1048C21.7609 28.1048 21.2946 28.2986 20.9509 28.6436C20.6071 28.9885 20.4139 29.4563 20.4139 29.9442C20.4212 30.432 20.6213 30.8969 20.9703 31.2367C21.3193 31.5764 21.7884 31.7632 22.2746 31.7559C22.7608 31.7486 23.2242 31.5478 23.5629 31.1977C23.9015 30.8475 24.0877 30.3768 24.0804 29.889C24.0662 29.4139 23.8693 28.9629 23.531 28.6303C23.1926 28.2977 22.7391 28.1094 22.2655 28.1048H22.2471ZM33.4299 28.1048C32.953 28.1046 32.4949 28.2908 32.1526 28.6239C31.8104 28.957 31.6109 29.4108 31.5966 29.889C31.589 30.1326 31.6312 30.3752 31.7206 30.6018C31.8101 30.8284 31.9448 31.0343 32.1166 31.2066C32.2884 31.379 32.4935 31.5142 32.7194 31.6039C32.9453 31.6936 33.1871 31.736 33.4299 31.7283C33.9161 31.7283 34.3824 31.5345 34.7262 31.1896C35.07 30.8446 35.2631 30.3768 35.2631 29.889C35.2491 29.4171 35.0547 28.9687 34.7203 28.6366C34.3859 28.3044 33.937 28.1141 33.4665 28.1048H33.4299Z" fill="#51DB49"/>
</g>
<defs>
<clipPath id="clip0_3_15">
<rect width="117.758" height="54.5175" fill="white" transform="translate(0.46817)"/>
</clipPath>
</defs>
</svg>
