<svg width="21" height="17" viewBox="0 0 21 17" fill="none" xmlns="http://www.w3.org/2000/svg">
<path fill-rule="evenodd" clip-rule="evenodd" d="M3.93311 16.0175C3.13746 16.0175 2.37439 15.7014 1.81179 15.1388C1.24918 14.5762 0.933105 13.8131 0.933105 13.0175V3.01746C0.933105 2.22181 1.24918 1.45875 1.81179 0.896136C2.37439 0.333527 3.13746 0.0174561 3.93311 0.0174561H17.9331C18.7288 0.0174561 19.4918 0.333527 20.0544 0.896136C20.617 1.45875 20.9331 2.22181 20.9331 3.01746V13.0175C20.9331 13.8131 20.617 14.5762 20.0544 15.1388C19.4918 15.7014 18.7288 16.0175 17.9331 16.0175H3.93311ZM6.55811 4.23746C6.45624 4.15047 6.33794 4.08484 6.21022 4.04446C6.0825 4.00408 5.94797 3.98976 5.81462 4.00237C5.68126 4.01498 5.5518 4.05425 5.43391 4.11785C5.31602 4.18146 5.21212 4.26809 5.12836 4.37263C5.0446 4.47716 4.98269 4.59745 4.94632 4.72637C4.90994 4.85529 4.89984 4.9902 4.9166 5.12309C4.93337 5.25599 4.97666 5.38416 5.04391 5.50001C5.11117 5.61585 5.20101 5.717 5.30811 5.79746L9.05811 8.79846C9.59019 9.22447 10.2515 9.45658 10.9331 9.45658C11.6147 9.45658 12.276 9.22447 12.8081 8.79846L16.5581 5.79846C16.6607 5.71638 16.7461 5.61491 16.8094 5.49983C16.8728 5.38475 16.9128 5.25832 16.9273 5.12776C16.9418 4.99721 16.9304 4.86507 16.8938 4.73891C16.8573 4.61274 16.7962 4.49502 16.7141 4.39246C16.632 4.28989 16.5306 4.2045 16.4155 4.14116C16.3004 4.07781 16.174 4.03775 16.0434 4.02326C15.9129 4.00878 15.7807 4.02015 15.6546 4.05673C15.5284 4.09331 15.4107 4.15438 15.3081 4.23646L11.5581 7.23646C11.3807 7.37846 11.1603 7.45583 10.9331 7.45583C10.7059 7.45583 10.4855 7.37846 10.3081 7.23646L6.55811 4.23746Z" fill="#51DB49"/>
</svg>
