<svg width="32" height="19" viewBox="0 0 32 19" fill="none" xmlns="http://www.w3.org/2000/svg">
<path d="M25 10.5175H7C6.44 10.5175 6 10.0775 6 9.51749C6 8.95749 6.44 8.51749 7 8.51749H25C25.56 8.51749 26 8.95749 26 9.51749C26 10.0775 25.56 10.5175 25 10.5175Z" fill="white"/>
<path d="M20 17.5175C19.8688 17.5191 19.7388 17.4932 19.6183 17.4415C19.4977 17.3899 19.3893 17.3136 19.3 17.2175C18.9 16.8175 18.9 16.1975 19.3 15.7975L25.6 9.49748L19.3 3.19748C18.9 2.79748 18.9 2.17748 19.3 1.77748C19.7 1.37748 20.32 1.37748 20.72 1.77748L27.72 8.77748C28.12 9.17748 28.12 9.79748 27.72 10.1975L20.72 17.1975C20.52 17.3975 20.26 17.4975 20.02 17.4975L20 17.5175Z" fill="white"/>
</svg>
