<svg width="22" height="16" viewBox="0 0 22 16" fill="none" xmlns="http://www.w3.org/2000/svg">
<path d="M13.2209 0.535839C13.589 0.167741 14.1595 0.167741 14.5276 0.535839L20.969 6.97725C21.3371 7.34534 21.3371 7.91579 20.969 8.28389L14.5276 14.7263C14.3437 14.91 14.1047 15.0015 13.884 15.0017L13.8655 15.0202C13.7449 15.0217 13.6248 14.9984 13.5139 14.9509C13.403 14.9033 13.3031 14.8323 13.2209 14.7438C12.8531 14.3757 12.8529 13.8052 13.2209 13.4372L18.0803 8.57881L1.90161 8.57881C1.3866 8.57862 0.981935 8.17388 0.981689 7.65889C0.981689 7.14367 1.38645 6.73818 1.90161 6.73799L18.1165 6.73799L13.2209 1.84248C12.8529 1.47442 12.853 0.903941 13.2209 0.535839Z" fill="black"/>
</svg>
