<svg width="56" height="56" viewBox="0 0 56 56" fill="none" xmlns="http://www.w3.org/2000/svg">
<path opacity="0.3" d="M6.61111 55.7261C4.93056 55.7261 3.49241 55.1282 2.29667 53.9325C1.10093 52.7367 0.502037 51.2976 0.5 49.615V6.83718C0.5 5.15663 1.09889 3.71848 2.29667 2.52274C3.49444 1.327 4.93259 0.728111 6.61111 0.726074H49.3889C51.0694 0.726074 52.5086 1.32496 53.7064 2.52274C54.9042 3.72052 55.502 5.15867 55.5 6.83718V49.615C55.5 51.2955 54.9021 52.7347 53.7064 53.9325C52.5106 55.1302 51.0715 55.7281 49.3889 55.7261H6.61111ZM9.66667 43.5038H46.3333L34.875 28.2261L25.7083 40.4483L18.8333 31.2816L9.66667 43.5038Z" fill="black"/>
</svg>
