<svg width="38" height="39" viewBox="0 0 38 39" fill="none" xmlns="http://www.w3.org/2000/svg">
<path d="M28.6194 3.48327C31.4707 5.12944 33.8384 7.49713 35.4845 10.3484C37.1307 13.1996 37.9973 16.434 37.9973 19.7263C37.9973 23.0186 37.1306 26.2529 35.4844 29.1042C33.8382 31.9554 31.4705 34.3231 28.6192 35.9692C25.768 37.6153 22.5336 38.4819 19.2413 38.4818C15.949 38.4818 12.7147 37.6151 9.86346 35.9689C7.01225 34.3227 4.64461 31.9549 2.99851 29.1036C1.35241 26.2524 0.485848 23.018 0.485931 19.7257L0.495309 19.118C0.600347 15.8789 1.5429 12.7222 3.23109 9.95585C4.91927 7.18944 7.29547 4.90768 10.128 3.33301C12.9606 1.75834 16.1528 0.944499 19.3935 0.970834C22.6343 0.997169 25.8129 1.86278 28.6194 3.48327ZM23.9305 21.6013C23.1844 21.6013 22.4688 21.8977 21.9412 22.4253C21.4136 22.9529 21.1172 23.6685 21.1172 24.4146C21.1172 25.1608 21.4136 25.8763 21.9412 26.404C22.4688 26.9316 23.1844 27.228 23.9305 27.228C24.6767 27.228 25.3923 26.9316 25.9199 26.404C26.4475 25.8763 26.7439 25.1608 26.7439 24.4146C26.7439 23.6685 26.4475 22.9529 25.9199 22.4253C25.3923 21.8977 24.6767 21.6013 23.9305 21.6013ZM26.1943 12.773C25.8426 12.4213 25.3656 12.2238 24.8683 12.2238C24.371 12.2238 23.894 12.4213 23.5423 12.773L12.2889 24.0264C11.9472 24.3801 11.7582 24.8539 11.7625 25.3456C11.7667 25.8374 11.964 26.3078 12.3117 26.6556C12.6595 27.0033 13.1299 27.2006 13.6217 27.2048C14.1134 27.2091 14.5872 27.0201 14.9409 26.6784L26.1943 15.425C26.546 15.0733 26.7435 14.5963 26.7435 14.099C26.7435 13.6017 26.546 13.1247 26.1943 12.773ZM14.5527 12.2234C13.8065 12.2234 13.091 12.5198 12.5633 13.0474C12.0357 13.575 11.7393 14.2906 11.7393 15.0368C11.7393 15.7829 12.0357 16.4985 12.5633 17.0261C13.091 17.5537 13.8065 17.8501 14.5527 17.8501C15.2988 17.8501 16.0144 17.5537 16.542 17.0261C17.0696 16.4985 17.366 15.7829 17.366 15.0368C17.366 14.2906 17.0696 13.575 16.542 13.0474C16.0144 12.5198 15.2988 12.2234 14.5527 12.2234Z" fill="#51DB49"/>
</svg>
