<svg width="19" height="18" viewBox="0 0 19 18" fill="none" xmlns="http://www.w3.org/2000/svg">
<path d="M17.1368 12.2856L14.5968 11.9956C14.2981 11.9606 13.9954 11.9936 13.7113 12.0924C13.4273 12.1911 13.1693 12.3529 12.9568 12.5656L11.1168 14.4056C8.27817 12.9616 5.97084 10.6543 4.52678 7.81565L6.37678 5.96565C6.80678 5.53565 7.01678 4.93565 6.94678 4.32565L6.65678 1.80565C6.6003 1.31774 6.36624 0.86767 5.99924 0.54124C5.63224 0.21481 5.15795 0.0348445 4.66678 0.0356472H2.93678C1.80678 0.0356472 0.866779 0.975647 0.936779 2.10565C1.46678 10.6456 8.29678 17.4656 16.8268 17.9956C17.9568 18.0656 18.8968 17.1256 18.8968 15.9956V14.2656C18.9068 13.2556 18.1468 12.4056 17.1368 12.2856Z" fill="#51DB49"/>
</svg>
