<svg width="114" height="86" viewBox="0 0 114 86" fill="none" xmlns="http://www.w3.org/2000/svg">
<path opacity="0.2" d="M69.7944 2.45528C74.9406 9.47279 77.7476 17.8938 77.7476 33.8001C77.7476 49.2385 68.3909 58.5952 60.4378 60.9343C60.4378 75.4372 71.6657 85.7295 87.1042 85.7295C103.478 85.7295 113.771 74.0337 113.771 58.1274C113.771 37.0749 96.9287 21.1686 73.0692 0.11612L69.7944 2.45528ZM9.91186 2.45528C15.058 9.47279 17.865 17.8938 17.865 33.8001C17.865 49.2385 8.50836 58.5952 0.555204 60.9343C0.555204 75.4372 11.7832 85.7295 27.2217 85.7295C43.5958 85.7295 53.8881 74.0337 53.8881 58.1274C53.8881 37.0749 37.0461 21.1686 13.1867 0.11612L9.91186 2.45528Z" fill="#1E1E1E" fill-opacity="0.5"/>
</svg>
