<svg width="14" height="16" viewBox="0 0 14 16" fill="none" xmlns="http://www.w3.org/2000/svg">
<path d="M10.8266 2.83439C10.247 2.17257 9.92763 1.3228 9.92771 0.443115H7.30749V10.9579C7.2877 11.5271 7.04761 12.0663 6.63786 12.4618C6.22811 12.8573 5.68075 13.0782 5.11125 13.0778C3.90714 13.0778 2.90653 12.0942 2.90653 10.8731C2.90653 9.41462 4.31416 8.32074 5.76419 8.77017V6.09059C2.8387 5.70052 0.277832 7.97308 0.277832 10.8731C0.277832 13.6969 2.61823 15.7065 5.10277 15.7065C7.7654 15.7065 9.92771 13.5442 9.92771 10.8731V5.53941C10.9902 6.30245 12.2659 6.71185 13.574 6.7096V4.08938C13.574 4.08938 11.9798 4.1657 10.8266 2.83439Z" fill="#51DB49"/>
</svg>
