<svg width="42" height="36" viewBox="0 0 42 36" fill="none" xmlns="http://www.w3.org/2000/svg">
<path fill-rule="evenodd" clip-rule="evenodd" d="M0.152588 2.47607C0.152588 2.01195 0.350192 1.56683 0.701929 1.23864C1.05367 0.910449 1.53072 0.726074 2.02816 0.726074H22.6594C23.1568 0.726074 23.6339 0.910449 23.9856 1.23864C24.3374 1.56683 24.535 2.01195 24.535 2.47607V11.2261H32.0372C33.2688 11.2261 34.4882 11.4524 35.626 11.8921C36.7638 12.3319 37.7976 12.9764 38.6684 13.7889C39.5392 14.6014 40.2299 15.566 40.7012 16.6276C41.1725 17.6892 41.4151 18.827 41.4151 19.9761V26.9761C41.4156 28.1027 41.0276 29.1996 40.3086 30.1047C39.5895 31.0097 38.5774 31.675 37.422 32.0021C37.078 33.0608 36.3843 33.9911 35.44 34.6602C34.4957 35.3292 33.349 35.7028 32.1636 35.7277C30.9782 35.7525 29.8147 35.4273 28.8391 34.7985C27.8635 34.1697 27.1258 33.2693 26.7313 32.2261H14.8383C14.4437 33.2693 13.706 34.1697 12.7304 34.7985C11.7549 35.4273 10.5914 35.7525 9.40594 35.7277C8.22053 35.7028 7.07383 35.3292 6.12951 34.6602C5.18519 33.9911 4.49153 33.0608 4.14755 32.0021C2.99174 31.6753 1.97929 31.0102 1.25987 30.1051C0.54044 29.2 0.152218 28.1029 0.152588 26.9761V19.9761H11.406C11.9034 19.9761 12.3805 19.7917 12.7322 19.4635C13.084 19.1353 13.2816 18.6902 13.2816 18.2261C13.2816 17.7619 13.084 17.3168 12.7322 16.9886C12.3805 16.6604 11.9034 16.4761 11.406 16.4761H0.152588V12.9761H7.65486C8.15229 12.9761 8.62935 12.7917 8.98108 12.4635C9.33282 12.1353 9.53043 11.6902 9.53043 11.2261C9.53043 10.7619 9.33282 10.3168 8.98108 9.98864C8.62935 9.66045 8.15229 9.47607 7.65486 9.47607H0.152588V2.47607ZM24.535 28.7261H26.7313C27.102 27.7469 27.7758 26.8922 28.6672 26.2704C29.5586 25.6485 30.6277 25.2872 31.7392 25.2323C32.8507 25.1774 33.9547 25.4314 34.9115 25.962C35.8683 26.4926 36.6349 27.2761 37.1144 28.2133C37.4662 27.8852 37.6638 27.4402 37.6639 26.9761V19.9761C37.6639 18.5837 37.0711 17.2483 36.0159 16.2638C34.9607 15.2792 33.5295 14.7261 32.0372 14.7261H24.535V28.7261ZM11.406 30.4761C11.406 30.0119 11.2084 29.5668 10.8567 29.2386C10.5049 28.9104 10.0279 28.7261 9.53043 28.7261C9.033 28.7261 8.55594 28.9104 8.2042 29.2386C7.85246 29.5668 7.65486 30.0119 7.65486 30.4761C7.65486 30.9402 7.85246 31.3853 8.2042 31.7135C8.55594 32.0417 9.033 32.2261 9.53043 32.2261C10.0279 32.2261 10.5049 32.0417 10.8567 31.7135C11.2084 31.3853 11.406 30.9402 11.406 30.4761ZM30.7112 29.2388C30.3594 29.5669 30.1618 30.012 30.1617 30.4761C30.1616 30.881 30.3119 31.2733 30.5872 31.5864C30.8624 31.8994 31.2454 32.1137 31.671 32.1928C32.0965 32.2718 32.5383 32.2108 32.9211 32.02C33.3038 31.8292 33.6038 31.5205 33.7699 31.1464C33.936 30.7724 33.958 30.3562 33.8321 29.9687C33.7062 29.5813 33.4403 29.2465 33.0795 29.0215C32.7188 28.7965 32.2855 28.6952 31.8537 28.7348C31.4219 28.7745 31.0181 28.9526 30.7112 29.2388Z" fill="#51DB49"/>
</svg>
