<svg width="38" height="38" viewBox="0 0 38 38" fill="none" xmlns="http://www.w3.org/2000/svg">
<path fill-rule="evenodd" clip-rule="evenodd" d="M15.4525 2.14137L13.8639 3.30764C13.5839 3.53093 13.2874 3.73254 12.9768 3.91072C12.7677 4.0219 12.5485 4.11305 12.3221 4.18293C12.0663 4.26037 11.8012 4.30026 11.2685 4.38239L9.3208 4.68041C7.78376 4.91507 7.01407 5.03475 6.41099 5.39378C5.87127 5.71058 5.42307 6.16113 5.10393 6.70085C4.74489 7.31097 4.62756 8.08066 4.39055 9.61065L4.09253 11.5583C4.0104 12.091 3.97051 12.3585 3.89307 12.6143C3.82267 12.8412 3.73194 13.0586 3.62086 13.2667C3.49415 13.5013 3.33692 13.7196 3.01778 14.1537L1.85151 15.7424C0.931639 16.9955 0.471702 17.622 0.293359 18.3002C0.1396 18.9062 0.1396 19.541 0.293359 20.147C0.469355 20.8322 0.931639 21.4611 1.85151 22.7048L3.01778 24.2934C3.33692 24.7276 3.49649 24.9458 3.62086 25.1805C3.73037 25.3901 3.82111 25.6091 3.89307 25.8375C3.97051 26.091 4.0104 26.3561 4.09253 26.8888L4.39055 28.8365C4.62522 30.3735 4.74489 31.1409 5.10393 31.7463C5.42072 32.286 5.87127 32.7366 6.41099 33.0534C7.02111 33.4124 7.7908 33.5297 9.3208 33.7667L11.2685 34.0648C11.8012 34.1469 12.0687 34.1891 12.3221 34.2666C12.549 34.3354 12.7672 34.4261 12.9768 34.5388C13.2115 34.6631 13.4297 34.8204 13.8639 35.1419L15.4525 36.3081C16.7056 37.228 17.3322 37.6879 18.0103 37.8663C18.6158 38.0235 19.2517 38.0235 19.8571 37.8663C20.5423 37.6879 21.1712 37.228 22.4149 36.3081L24.0036 35.1419C24.4377 34.8227 24.6559 34.6631 24.8906 34.5388C25.1002 34.4261 25.3185 34.3354 25.5453 34.2666C25.8011 34.1891 26.0663 34.1492 26.5989 34.0648L28.5466 33.7667C30.0837 33.5321 30.851 33.4147 31.4564 33.0534C31.9962 32.7366 32.4467 32.286 32.7635 31.7463C33.1225 31.1362 33.2399 30.3665 33.4769 28.8365L33.7749 26.8888C33.857 26.3561 33.8969 26.091 33.9744 25.8352C34.0448 25.6083 34.1355 25.3901 34.2466 25.1805C34.3733 24.9458 34.5305 24.7276 34.8497 24.2934L36.0159 22.7048C36.9358 21.4517 37.3957 20.8275 37.5741 20.147C37.7278 19.541 37.7278 18.9062 37.5741 18.3002C37.3981 17.615 36.9358 16.9861 36.0159 15.7424L34.8497 14.1537C34.6264 13.8738 34.4247 13.5773 34.2466 13.2667C34.1354 13.0575 34.0442 12.8383 33.9744 12.612C33.8812 12.2664 33.8145 11.9141 33.7749 11.5583L33.4769 9.61065C33.2422 8.07362 33.1225 7.30393 32.7635 6.70085C32.4436 6.16304 31.9942 5.71374 31.4564 5.39378C30.8463 5.03475 30.0766 4.91742 28.5466 4.68041L26.5989 4.38239C26.2432 4.34279 25.8909 4.27611 25.5453 4.18293C25.3185 4.11446 25.0991 4.02326 24.8906 3.91072C24.58 3.73254 24.2835 3.53093 24.0036 3.30764L22.4149 2.14137C21.1618 1.2215 20.5353 0.761558 19.8571 0.583215C19.2511 0.429456 18.6163 0.429456 18.0103 0.583215C17.3251 0.761558 16.6962 1.2215 15.4525 2.14137ZM27.96 14.8366C28.0958 14.6709 28.197 14.4797 28.2577 14.2743C28.3183 14.0688 28.3372 13.8533 28.3131 13.6404C28.289 13.4276 28.2225 13.2217 28.1175 13.035C28.0126 12.8483 27.8712 12.6845 27.7019 12.5533C27.3574 12.2838 26.9212 12.1595 26.4864 12.2068C26.0516 12.2541 25.6524 12.4694 25.374 12.8067L17.6067 22.334L13.4532 19.1426C13.1139 18.8665 12.6802 18.7338 12.2445 18.7728C11.8087 18.8118 11.4055 19.0194 11.1207 19.3515C10.9815 19.5143 10.8764 19.7034 10.8115 19.9075C10.7467 20.1117 10.7234 20.3267 10.7431 20.54C10.7628 20.7533 10.8251 20.9605 10.9262 21.1493C11.0273 21.3382 11.1652 21.5048 11.3319 21.6394L16.776 25.8868C17.1198 26.1664 17.5602 26.2987 18.0012 26.2548C18.4422 26.2108 18.8479 25.9942 19.1297 25.6521L27.9529 14.8108L27.96 14.8366Z" fill="#51DB49"/>
</svg>
