<svg width="18" height="18" viewBox="0 0 18 18" fill="none" xmlns="http://www.w3.org/2000/svg">
<path d="M14.8845 2.91075C14.1069 2.12562 13.1809 1.50309 12.1604 1.07944C11.1398 0.655796 10.0452 0.4395 8.9402 0.443161C4.31029 0.443161 0.536832 4.21662 0.536832 8.84653C0.536832 10.3305 0.926897 11.772 1.65615 13.044L0.468994 17.4025L4.92083 16.2323C6.15038 16.9022 7.53257 17.2584 8.9402 17.2584C13.5701 17.2584 17.3436 13.4849 17.3436 8.85501C17.3436 6.60789 16.4702 4.49645 14.8845 2.91075ZM8.9402 15.8338C7.68521 15.8338 6.45565 15.4946 5.37873 14.8586L5.12434 14.706L2.47868 15.4013L3.18249 12.8235L3.0129 12.5606C2.31549 11.4473 1.94524 10.1603 1.94446 8.84653C1.94446 4.99675 5.08194 1.85927 8.93172 1.85927C10.7973 1.85927 12.5525 2.58852 13.8669 3.91135C14.5178 4.55908 15.0336 5.32962 15.3844 6.17825C15.7352 7.02689 15.9141 7.93673 15.9105 8.85501C15.9275 12.7048 12.79 15.8338 8.9402 15.8338ZM12.773 10.6103C12.561 10.5085 11.5265 9.99977 11.34 9.92345C11.1449 9.85561 11.0092 9.82169 10.8651 10.0252C10.7209 10.2372 10.3224 10.7121 10.2037 10.8477C10.085 10.9919 9.95776 11.0088 9.74577 10.8986C9.53378 10.7969 8.8554 10.5679 8.05831 9.85561C7.43082 9.29595 7.01531 8.6091 6.88812 8.39711C6.7694 8.18511 6.87116 8.07488 6.98139 7.96464C7.07467 7.87137 7.19338 7.71873 7.29514 7.60002C7.3969 7.4813 7.4393 7.38802 7.50713 7.25235C7.57497 7.10819 7.54105 6.98948 7.49017 6.88772C7.4393 6.78597 7.01531 5.75144 6.84572 5.32746C6.67612 4.92043 6.49805 4.97131 6.37085 4.96283H5.96383C5.81967 4.96283 5.5992 5.01371 5.40417 5.2257C5.21762 5.4377 4.67492 5.94648 4.67492 6.981C4.67492 8.01552 5.42961 9.01612 5.53137 9.1518C5.63312 9.29595 7.01531 11.4159 9.11827 12.3232C9.61857 12.5437 10.0086 12.6709 10.3139 12.7641C10.8142 12.9253 11.2721 12.8998 11.6367 12.8489C12.0438 12.7896 12.8833 12.3402 13.0528 11.8483C13.2309 11.3565 13.2309 10.941 13.1716 10.8477C13.1122 10.7545 12.985 10.7121 12.773 10.6103Z" fill="#51DB49"/>
</svg>
