<svg width="99" height="15" viewBox="0 0 99 15" fill="none" xmlns="http://www.w3.org/2000/svg">
<path d="M15.2965 6.77255C15.2965 6.77255 15.5311 7.92158 15.5839 8.16228H14.5527L15.0469 6.81869C15.0408 6.82814 15.1486 6.53741 15.2103 6.35841L15.2965 6.77255ZM18.5668 2.09974V12.9707C18.5664 13.3638 18.4101 13.7406 18.1321 14.0186C17.8542 14.2965 17.4773 14.4528 17.0843 14.4533H2.26016C1.8671 14.4528 1.49025 14.2965 1.21231 14.0186C0.934371 13.7406 0.778029 13.3638 0.777588 12.9707V2.09974C0.778029 1.70668 0.934371 1.32984 1.21231 1.05191C1.49025 0.773968 1.8671 0.617629 2.26016 0.617188H17.0843C17.4773 0.617629 17.8542 0.773968 18.1321 1.05191C18.4101 1.32984 18.5664 1.70668 18.5668 2.09974ZM5.4877 9.85774L7.43946 5.06486H6.12698L4.91346 8.33849L4.7806 7.67476L4.34811 5.46955C4.27696 5.16381 4.05794 5.07709 3.7861 5.06486H1.78821L1.76653 5.16047C2.22403 5.27284 2.6629 5.45071 3.06955 5.68857L4.17523 9.85774H5.4877ZM8.40338 9.86385L9.18164 5.06486H7.94032L7.1654 9.86385H8.40338ZM12.7238 8.29513C12.7299 7.74869 12.3964 7.33178 11.6832 6.98879C11.2479 6.76922 10.9822 6.62135 10.9822 6.39566C10.9883 6.19165 11.2079 5.98152 11.6954 5.98152C12.013 5.97209 12.3286 6.03441 12.6187 6.16385L12.7299 6.21611L12.9 5.17826C12.545 5.04298 12.1682 4.97384 11.7882 4.97425C10.5619 4.97425 9.70029 5.62909 9.69417 6.56131C9.68472 7.25006 10.3118 7.63307 10.7815 7.86432C11.2601 8.0989 11.4241 8.25344 11.4241 8.46023C11.418 8.78154 11.035 8.9294 10.6798 8.9294C10.1856 8.9294 9.91987 8.85214 9.51518 8.67314L9.35174 8.59587L9.17886 9.67374C9.46904 9.8066 10.0066 9.92389 10.5625 9.93001C11.8655 9.93279 12.7149 9.2874 12.7244 8.29347L12.7238 8.29513ZM17.0843 9.86385L16.0837 5.06486H15.1231C14.8268 5.06486 14.6011 5.15158 14.4743 5.46343L12.6304 9.86441H13.9334C13.9334 9.86441 14.1464 9.27128 14.193 9.14509H15.7868C15.824 9.31519 15.9352 9.86441 15.9352 9.86441L17.0843 9.86385Z" fill="#51DB49"/>
<path d="M42.3754 12.27C42.3754 12.48 42.2333 12.6314 42.0295 12.6314C41.8195 12.6314 41.6836 12.4708 41.6836 12.27C41.6836 12.0693 41.8195 11.9087 42.0295 11.9087C42.2333 11.9087 42.3754 12.0693 42.3754 12.27ZM32.7766 11.9087C32.5573 11.9087 32.4307 12.0693 32.4307 12.27C32.4307 12.4708 32.5573 12.6314 32.7766 12.6314C32.9773 12.6314 33.1132 12.48 33.1132 12.27C33.1101 12.0693 32.9773 11.9087 32.7766 11.9087ZM36.4055 11.8994C36.2387 11.8994 36.1368 12.0075 36.1121 12.1681H36.702C36.6742 11.9921 36.5661 11.8994 36.4055 11.8994ZM39.7348 11.9087C39.5248 11.9087 39.3981 12.0693 39.3981 12.27C39.3981 12.4708 39.5248 12.6314 39.7348 12.6314C39.9448 12.6314 40.0807 12.48 40.0807 12.27C40.0807 12.0693 39.9448 11.9087 39.7348 11.9087ZM43.0054 12.7147C43.0054 12.724 43.0147 12.7302 43.0147 12.7487C43.0147 12.758 43.0054 12.7642 43.0054 12.7827C42.9961 12.792 42.9961 12.7981 42.99 12.8074C42.9807 12.8167 42.9745 12.8228 42.956 12.8228C42.9467 12.8321 42.9405 12.8321 42.922 12.8321C42.9128 12.8321 42.9066 12.8321 42.888 12.8228C42.8788 12.8228 42.8726 12.8136 42.8633 12.8074C42.8541 12.7981 42.8479 12.792 42.8479 12.7827C42.8386 12.7672 42.8386 12.758 42.8386 12.7487C42.8386 12.7333 42.8386 12.724 42.8479 12.7147C42.8479 12.6993 42.8572 12.69 42.8633 12.6808C42.8726 12.6715 42.8788 12.6715 42.888 12.6653C42.9035 12.6561 42.9128 12.6561 42.922 12.6561C42.9375 12.6561 42.9467 12.6561 42.956 12.6653C42.9714 12.6746 42.9807 12.6746 42.99 12.6808C42.9992 12.6869 42.9961 12.6993 43.0054 12.7147ZM42.9375 12.758C42.9529 12.758 42.9529 12.7487 42.9622 12.7487C42.9714 12.7395 42.9714 12.7333 42.9714 12.724C42.9714 12.7147 42.9714 12.7086 42.9622 12.6993C42.9529 12.6993 42.9467 12.69 42.9282 12.69H42.8788V12.7981H42.9035V12.7549H42.9128L42.9467 12.7981H42.9714L42.9375 12.758ZM45.2507 2.09987V12.9711C45.2507 13.7895 44.5867 14.4535 43.7682 14.4535H28.9439C28.1254 14.4535 27.4614 13.7895 27.4614 12.9711V2.09987C27.4614 1.28144 28.1254 0.617432 28.9439 0.617432H43.7682C44.5867 0.617432 45.2507 1.28144 45.2507 2.09987ZM29.438 6.41129C29.438 8.77393 31.3559 10.6887 33.7155 10.6887C34.5555 10.6887 35.3801 10.4355 36.0781 9.97532C33.8266 8.14389 33.8421 4.68796 36.0781 2.85653C35.3801 2.39327 34.5555 2.14311 33.7155 2.14311C31.3559 2.14002 29.438 4.05792 29.438 6.41129ZM36.3561 9.77149C38.5334 8.07286 38.5241 4.76208 36.3561 3.05419C34.188 4.76208 34.1787 8.07595 36.3561 9.77149ZM31.9612 12.1279C31.9612 11.8593 31.7852 11.6832 31.5072 11.674C31.3652 11.674 31.2138 11.7172 31.1119 11.8747C31.0378 11.7481 30.9112 11.674 30.7351 11.674C30.6178 11.674 30.5004 11.7172 30.4078 11.8407V11.7048H30.1545V12.8383H30.4078C30.4078 12.2546 30.3306 11.9056 30.6857 11.9056C31.0007 11.9056 30.939 12.2206 30.939 12.8383H31.183C31.183 12.2731 31.1058 11.9056 31.4609 11.9056C31.7759 11.9056 31.7142 12.2144 31.7142 12.8383H31.9674V12.1279H31.9612ZM33.3479 11.7048H33.104V11.8407C33.0206 11.7388 32.9032 11.674 32.7426 11.674C32.4245 11.674 32.1805 11.9272 32.1805 12.27C32.1805 12.6159 32.4245 12.8661 32.7426 12.8661C32.9032 12.8661 33.0206 12.8074 33.104 12.6993V12.8414H33.3479V11.7048ZM34.5987 12.4955C34.5987 12.0322 33.8915 12.2422 33.8915 12.026C33.8915 11.85 34.259 11.8778 34.4629 11.9921L34.5648 11.7913C34.2745 11.6029 33.6321 11.606 33.6321 12.0446C33.6321 12.4862 34.3393 12.3009 34.3393 12.5078C34.3393 12.7024 33.9224 12.6869 33.7 12.5325L33.5919 12.7271C33.9378 12.9618 34.5987 12.9124 34.5987 12.4955ZM35.692 12.7827L35.6241 12.5727C35.5067 12.6375 35.2473 12.7086 35.2473 12.4461V11.9334H35.6519V11.7048H35.2473V11.3589H34.9941V11.7048H34.7593V11.9303H34.9941V12.4461C34.9941 12.9896 35.5284 12.8908 35.692 12.7827ZM36.1028 12.3688H36.9521C36.9521 11.8685 36.7236 11.6709 36.4147 11.6709C36.0874 11.6709 35.8526 11.9148 35.8526 12.2669C35.8526 12.9001 36.5506 13.0051 36.8965 12.7055L36.7792 12.5202C36.5383 12.7178 36.1738 12.6993 36.1028 12.3688ZM37.9281 11.7048C37.786 11.6431 37.5698 11.6492 37.4586 11.8407V11.7048H37.2054V12.8383H37.4586V12.199C37.4586 11.8407 37.752 11.8871 37.8539 11.9396L37.9281 11.7048ZM38.2554 12.27C38.2554 11.9179 38.6137 11.8037 38.8947 12.0106L39.0121 11.8098C38.6538 11.5288 38.0022 11.6832 38.0022 12.2731C38.0022 12.8846 38.694 13.0081 39.0121 12.7364L38.8947 12.5356C38.6106 12.7364 38.2554 12.6159 38.2554 12.27ZM40.3154 11.7048H40.0621V11.8407C39.8058 11.501 39.1387 11.6925 39.1387 12.27C39.1387 12.863 39.8305 13.0329 40.0621 12.6993V12.8414H40.3154V11.7048ZM41.3562 11.7048C41.2821 11.6678 41.0165 11.6153 40.8868 11.8407V11.7048H40.6428V12.8383H40.8868V12.199C40.8868 11.8593 41.1647 11.8809 41.2821 11.9396L41.3562 11.7048ZM42.6008 11.2447H42.3568V11.8407C42.1036 11.5041 41.4334 11.6832 41.4334 12.27C41.4334 12.8692 42.1283 13.0298 42.3568 12.6993V12.8414H42.6008V11.2447ZM42.8355 8.92526V9.06733H42.8603V8.92526H42.9189V8.90056H42.7769V8.92526H42.8355ZM43.0394 12.7487C43.0394 12.7333 43.0394 12.7147 43.0301 12.6993C43.0208 12.69 43.0147 12.6746 43.0054 12.6653C42.9961 12.6561 42.9807 12.6499 42.9714 12.6406C42.956 12.6406 42.9375 12.6314 42.922 12.6314C42.9128 12.6314 42.8973 12.6406 42.8788 12.6406C42.8633 12.6499 42.8541 12.6561 42.8448 12.6653C42.8294 12.6746 42.8201 12.69 42.8201 12.6993C42.8108 12.7147 42.8108 12.7333 42.8108 12.7487C42.8108 12.758 42.8108 12.7734 42.8201 12.792C42.8201 12.8012 42.8294 12.8167 42.8448 12.8259C42.8541 12.8352 42.8603 12.8414 42.8788 12.8506C42.8942 12.8599 42.9128 12.8599 42.922 12.8599C42.9375 12.8599 42.956 12.8599 42.9714 12.8506C42.9807 12.8414 42.9961 12.8352 43.0054 12.8259C43.0147 12.8167 43.0208 12.8012 43.0301 12.792C43.0394 12.7734 43.0394 12.758 43.0394 12.7487ZM43.1382 8.89747H43.095L43.0456 9.00556L42.9961 8.89747H42.9529V9.06424H42.9776V8.93762L43.027 9.04571H43.061L43.1042 8.93762V9.06424H43.1382V8.89747ZM43.2741 6.41129C43.2741 4.05792 41.3562 2.14002 38.9966 2.14002C38.1566 2.14002 37.332 2.39327 36.634 2.85344C38.8608 4.68487 38.8947 8.15007 36.634 9.97223C37.332 10.4355 38.1628 10.6857 38.9966 10.6857C41.3562 10.6887 43.2741 8.77393 43.2741 6.41129Z" fill="#51DB49"/>
<path d="M64.192 4.8115C64.192 4.305 63.7565 4.24323 63.3458 4.24323L62.1382 4.23396V6.37423H62.6447V5.59904H63.2006C63.7689 5.59904 63.6484 5.91715 63.6577 6.37423H64.1704V5.9573C64.1704 5.67316 64.124 5.49095 63.8306 5.38903C64.0592 5.29638 64.1951 5.05857 64.192 4.8115ZM63.284 5.16049H62.6447V4.68796H63.2933C63.4508 4.68796 63.6237 4.71884 63.6237 4.9165C63.6237 5.12034 63.46 5.16049 63.284 5.16049ZM62.7682 7.92462H61.1406L60.4921 8.62877L59.8589 7.92462H57.8052L57.8021 10.0649H59.8219L60.4797 9.35455L61.1098 10.0649H62.1042L62.1073 9.34529C62.691 9.34529 63.6299 9.48735 63.6299 8.62569C63.6299 8.09139 63.25 7.92462 62.7682 7.92462ZM59.5625 9.61398H58.3086V9.18778H59.4297V8.75231H58.3086V8.36626H59.5964L60.1493 8.99012L59.5625 9.61398ZM61.5946 9.86723L60.8133 8.99938L61.5946 8.15316V9.86723ZM62.7621 8.90982H62.1073V8.36626H62.7713C62.9443 8.36626 63.0863 8.43729 63.0863 8.62569C63.0863 8.82334 62.9443 8.90982 62.7621 8.90982ZM61.7861 4.68796V4.23705H60.072V6.37732H61.7861V5.93568H60.5847V5.50948H61.7521V5.07401H60.5847V4.68796H61.7861ZM65.9308 8.50215C65.9308 7.99565 65.4953 7.92462 65.0938 7.92462H63.877L63.8739 10.0649H64.3866L64.3897 9.28352H64.9332C65.2729 9.28352 65.3903 9.34529 65.3903 9.70972L65.3872 10.0649H65.8999L65.903 9.63869C65.903 9.36382 65.8474 9.17234 65.5632 9.07042C65.8011 8.97468 65.9277 8.73687 65.9308 8.50215ZM65.029 8.84805H64.3897V8.36626H65.0382C65.1957 8.36626 65.3687 8.39714 65.3687 8.5948C65.3687 8.8079 65.2019 8.84805 65.029 8.84805ZM59.6922 6.37732V4.23705H58.8398L58.2314 5.68861L57.5612 4.23705H56.7242V6.26614L55.8564 4.23705H55.0997L54.1824 6.37732H54.7353L54.9329 5.90479H55.9984L56.1961 6.37732H57.24V4.7034L57.9812 6.37732H58.4321L59.1733 4.7034V6.37732H59.6922ZM55.1151 5.46006L55.461 4.60766L55.8162 5.46006H55.1151ZM69.8592 10.3676V10.2286C69.5257 10.4015 69.7388 10.3676 65.0197 10.3676C65.0197 9.58927 65.0228 9.62942 65.0197 9.58927C64.9672 9.58618 64.9209 9.58618 64.7294 9.58618C64.7294 10.139 64.7263 9.7962 64.7263 10.3676H63.5033C63.5033 9.99385 63.5064 9.89502 63.5064 9.46573C63.1975 9.65104 62.8022 9.66339 62.447 9.65722C62.447 10.1112 62.444 9.91356 62.444 10.3676H60.9337C60.7762 10.1915 60.8503 10.2718 60.4581 9.83017C60.3593 9.93826 60.0628 10.2595 59.9609 10.3676H57.4284V7.51695H59.9948C60.1493 7.6899 60.0813 7.61269 60.4735 8.04815C60.5724 7.94006 60.8503 7.63431 60.9584 7.51695H62.7497C63.0524 7.51695 63.3056 7.57563 63.5002 7.6899V7.51695C65.1772 7.51695 65.486 7.47371 65.8381 7.67446V7.51695H68.2533V7.67754C68.6053 7.46444 68.8586 7.51695 70.2576 7.51695V7.67137C70.5757 7.48915 70.7703 7.51077 71.9346 7.51695V2.09987C71.9346 1.28144 71.2706 0.617432 70.4522 0.617432H55.6278C54.8094 0.617432 54.1454 1.28144 54.1454 2.09987V5.49095C54.4357 4.81459 54.7538 4.07028 54.8588 3.82629H56.0849C56.2177 4.13822 56.1343 3.94056 56.3629 4.47795V3.82629H57.7835C57.8731 4.01777 58.1263 4.56751 58.2128 4.75282C58.392 4.33279 58.5248 4.01469 58.602 3.82629H61.783C61.783 3.8232 62.1382 3.82629 62.1413 3.82629C63.4909 3.83247 63.7967 3.80159 64.1302 3.98998V3.82629H65.3625V4.11352C65.5972 3.92512 65.9153 3.82629 66.3106 3.82629H67.163C67.163 3.84173 67.2217 3.83556 67.2341 3.83556H68.2347C68.3644 4.13822 68.315 4.02086 68.5065 4.47177V3.83556H69.8438C69.9951 4.08263 69.8129 3.77997 70.1897 4.40383V3.83556H71.422V6.6769H70.1372C69.9704 6.39894 70.0939 6.60895 69.7295 6.00054V6.6769H68.0988C67.9012 6.21981 68.0957 6.66763 67.895 6.20437H67.3082C67.1785 6.51321 67.2403 6.36497 67.1105 6.6769H66.2828C65.903 6.6769 65.5941 6.58425 65.3656 6.40203V6.6769H63.3118C63.3025 6.24761 63.3087 5.91097 63.3087 5.91097C63.2531 5.90171 63.2037 5.90479 63.006 5.90479V6.67999H58.8212V6.32791C58.744 6.50086 58.7379 6.51012 58.6637 6.67999H57.7527C57.6291 6.40512 57.6631 6.48233 57.5951 6.32791V6.67999H55.9614C55.8317 6.36806 55.8934 6.5163 55.7637 6.20746H55.1707C55.041 6.5163 55.1028 6.36806 54.9731 6.67999H54.1516V12.9711C54.1516 13.7895 54.8156 14.4535 55.634 14.4535H70.4615C71.2799 14.4535 71.9439 13.7895 71.9439 12.9711V10.1792C71.5517 10.4355 70.934 10.3676 69.8592 10.3676ZM70.9803 8.37553H71.9099V7.92462H70.8938C70.4985 7.92462 70.1588 8.12845 70.1588 8.56392C70.1588 9.58309 71.4776 8.95924 71.4776 9.41014C71.4776 9.56765 71.3448 9.6078 71.2181 9.6078H70.2298L70.2268 10.0649H71.215C71.4745 10.0649 71.7586 10.0093 71.9099 9.79002V8.99321C71.5857 8.56701 70.6962 8.95306 70.6962 8.57627C70.6962 8.39714 70.8383 8.37553 70.9803 8.37553ZM69.2199 9.60471H68.2255L68.2224 10.0618H69.2168C69.6739 10.0618 70.026 9.88885 70.026 9.38235C70.026 8.35699 68.7011 9.03645 68.7011 8.5701C68.7011 8.39714 68.8524 8.37244 68.9852 8.37244H69.9241V7.92153H68.8987C68.5034 7.92153 68.173 8.12536 68.173 8.56083C68.173 9.58001 69.4917 8.94688 69.4917 9.40705C69.4886 9.57383 69.3466 9.60471 69.2199 9.60471ZM67.9166 8.36626V7.92462H66.2118L66.2087 10.0649H67.9135L67.9166 9.62324L66.7245 9.61398V9.18778H67.895V8.75231H66.7276V8.36626H67.9166ZM66.1778 5.02769C66.1686 5.03386 66.1346 5.09563 66.1346 5.2624C66.1346 5.44771 66.1624 5.50021 66.1686 5.50639C66.1748 5.50948 66.2025 5.52183 66.2736 5.52183L66.499 4.99989C66.4651 4.99989 66.4342 4.9968 66.4033 4.9968C66.2303 4.9968 66.1871 5.01842 66.1778 5.02769ZM66.3076 4.23396C65.5818 4.23396 65.2575 4.60457 65.2575 5.32417C65.2575 6.0098 65.5725 6.37423 66.2767 6.37423H66.8696L67.0673 5.90171H68.1266L68.3305 6.37423H69.3713V4.77135L70.3348 6.37423H71.0637V4.24323H70.5418V5.72875L69.643 4.24323H68.8617V6.26305L68 4.24323H67.2341L66.5083 5.92641H66.2798C65.869 5.92641 65.7825 5.67625 65.7825 5.31182C65.7825 4.57678 66.2674 4.69414 66.8048 4.7034V4.23396H66.3076ZM67.6078 4.60766L67.9537 5.46006H67.2495L67.6078 4.60766ZM64.4854 4.23705V6.37732H65.0073V4.23705H64.4854Z" fill="#51DB49"/>
<path d="M86.5926 7.6033C86.5926 7.98019 86.293 8.26703 85.9133 8.26703C85.6292 8.26703 85.4191 8.10638 85.4191 7.80397C85.4191 7.42708 85.7126 7.12467 86.0895 7.12467C86.3769 7.12467 86.5926 7.30089 86.5926 7.6033ZM83.325 6.10573H83.1799C83.1338 6.10573 83.0871 6.13686 83.081 6.18911L82.9481 7.01405L83.2016 7.0046C83.5413 7.0046 83.8037 6.95846 83.8654 6.56601C83.9365 6.15187 83.6741 6.10573 83.325 6.10573ZM92.096 6.10573H91.957C91.9014 6.10573 91.8642 6.13686 91.858 6.18911L91.7285 7.01405L91.9753 7.0046C92.3767 7.0046 92.6546 6.91177 92.6546 6.44871C92.6513 6.12129 92.3589 6.10573 92.096 6.10573ZM98.6278 2.09999V12.971C98.6273 13.364 98.471 13.7409 98.193 14.0188C97.9151 14.2967 97.5382 14.4531 97.1452 14.4535H82.3211C81.928 14.4531 81.5512 14.2967 81.2732 14.0188C80.9953 13.7409 80.8389 13.364 80.8385 12.971V2.09999C80.8389 1.70693 80.9953 1.33009 81.2732 1.05215C81.5512 0.774212 81.928 0.617873 82.3211 0.617432H97.1452C97.5382 0.617873 97.9151 0.774212 98.193 1.05215C98.471 1.33009 98.6273 1.70693 98.6278 2.09999ZM84.8015 6.28139C84.8015 5.63267 84.3012 5.41643 83.7297 5.41643H82.4945C82.4546 5.41673 82.4162 5.43167 82.3866 5.45842C82.357 5.48516 82.3382 5.52185 82.3339 5.56151L81.8274 8.71452C81.818 8.77622 81.8647 8.83793 81.9264 8.83793H82.5134C82.5968 8.83793 82.6741 8.74843 82.6835 8.66171L82.8225 7.8401C82.8536 7.61775 83.23 7.69502 83.3784 7.69502C84.2617 7.69502 84.802 7.17026 84.802 6.28083L84.8015 6.28139ZM87.402 6.55322H86.8149C86.6977 6.55322 86.6915 6.72332 86.6854 6.80671C86.5064 6.54433 86.2468 6.49763 85.9533 6.49763C85.1967 6.49763 84.6192 7.16136 84.6192 7.89347C84.6192 8.4955 84.9961 8.88796 85.5981 8.88796C85.876 8.88796 86.2218 8.73675 86.4164 8.52051C86.3986 8.58301 86.3881 8.64737 86.3852 8.7123C86.3852 8.78345 86.4164 8.8357 86.4842 8.8357H87.0156C87.099 8.8357 87.1702 8.7462 87.1857 8.65948L87.5009 6.67385C87.5104 6.61492 87.4637 6.55322 87.402 6.55322ZM88.6527 9.5767L90.6201 6.71665C90.6356 6.70109 90.6356 6.68552 90.6356 6.6644C90.6356 6.61214 90.5895 6.55656 90.5367 6.55656H89.9435C89.916 6.55777 89.8891 6.56539 89.8649 6.5788C89.8408 6.59221 89.8201 6.61105 89.8046 6.63382L88.9863 7.83844L88.6466 6.68052C88.6337 6.64542 88.6106 6.61496 88.5803 6.59299C88.55 6.57102 88.5139 6.55854 88.4765 6.55711H87.8989C87.8461 6.55711 87.8 6.6127 87.8 6.66495C87.8 6.7022 88.402 8.41934 88.4548 8.58277C88.3715 8.70007 87.8217 9.46608 87.8217 9.55891C87.8217 9.6145 87.8678 9.65786 87.9206 9.65786H88.5138C88.5415 9.65592 88.5684 9.6477 88.5925 9.63383C88.6165 9.61996 88.6372 9.60081 88.6527 9.57782V9.5767ZM93.5724 6.28139C93.5724 5.63267 93.0721 5.41643 92.5007 5.41643H91.2744C91.2334 5.41644 91.1938 5.43105 91.1626 5.45764C91.1314 5.48423 91.1107 5.52106 91.1042 5.56151L90.6039 8.71174C90.5978 8.77344 90.644 8.83515 90.7029 8.83515H91.3361C91.3978 8.83515 91.4439 8.78901 91.4595 8.7362L91.5984 7.84066C91.6296 7.6183 92.0065 7.69557 92.1543 7.69557C93.0315 7.69557 93.5724 7.17081 93.5724 6.28139ZM96.1724 6.55322H95.5853C95.468 6.55322 95.4619 6.72332 95.4525 6.80671C95.2824 6.54433 95.02 6.49763 94.7204 6.49763C93.9638 6.49763 93.3862 7.16136 93.3862 7.89347C93.3862 8.4955 93.7631 8.88796 94.3651 8.88796C94.6525 8.88796 94.9983 8.73675 95.1834 8.52051C95.174 8.56665 95.1523 8.6656 95.1523 8.7123C95.1523 8.78345 95.1834 8.8357 95.2512 8.8357H95.7855C95.8688 8.8357 95.94 8.7462 95.9556 8.65948L96.2708 6.67385C96.2802 6.61492 96.2341 6.55322 96.1724 6.55322ZM97.6394 5.52482C97.6394 5.46312 97.5932 5.41698 97.5404 5.41698H96.969C96.9228 5.41698 96.8761 5.45423 96.87 5.50037L96.3697 8.7123L96.3608 8.72786C96.3608 8.78345 96.4069 8.8357 96.4687 8.8357H96.9784C97.0557 8.8357 97.133 8.7462 97.1391 8.65948L97.6394 5.53427V5.52482ZM94.8599 7.12467C94.483 7.12467 94.1895 7.4243 94.1895 7.80397C94.1895 8.1036 94.4057 8.26703 94.6898 8.26703C95.0606 8.26703 95.3602 7.98297 95.3602 7.6033C95.3635 7.30089 95.1473 7.12467 94.8599 7.12467Z" fill="#51DB49"/>
</svg>
